<?xml version="1.0" encoding="utf-8"?>
<!-- Generator: Adobe Illustrator 21.1.0, SVG Export Plug-In . SVG Version: 6.00 Build 0)  -->
<svg version="1.1" xmlns="http://www.w3.org/2000/svg" xmlns:xlink="http://www.w3.org/1999/xlink" x="0px" y="0px"
	 viewBox="0 0 300 300" style="enable-background:new 0 0 300 300;" xml:space="preserve">
<style type="text/css">
	.st0{display:none;}
	.st1{display:inline;fill:none;stroke:#000000;stroke-linecap:round;stroke-linejoin:round;}
	.st2{fill:none;stroke:#000000;stroke-linecap:round;stroke-linejoin:round;}
</style>
<g id="_x31_" class="st0">
	<rect class="st1" width="300" height="300"/>
</g>
<g id="_x33_::000_-_Copy">
	<line class="st2" x1="93.2" y1="195.2" x2="69.6" y2="169.4"/>
	<line class="st2" x1="92.7" y1="261.5" x2="93.2" y2="195.2"/>
	<line class="st2" x1="69.6" y1="169.4" x2="45.5" y2="195.1"/>
	<path class="st2" d="M102.6,61.1c-11,36.1-22,72.2-33,108.3"/>
	<line class="st2" x1="162.9" y1="145.6" x2="93.2" y2="195.2"/>
	<line class="st2" x1="162.9" y1="145.6" x2="167.1" y2="131.8"/>
	<path class="st2" d="M170.3,121.5c-17.1-24.6-34.2-49.2-51.3-73.8"/>
	<line class="st2" x1="162.9" y1="145.6" x2="170.5" y2="239.3"/>
	<line class="st2" x1="167.1" y1="131.8" x2="170.3" y2="121.5"/>
	<line class="st2" x1="232.1" y1="75.6" x2="170.3" y2="121.5"/>
	<line class="st2" x1="232.1" y1="75.6" x2="226.8" y2="143.1"/>
	<line class="st2" x1="226.8" y1="143.1" x2="215" y2="163.2"/>
	<line class="st2" x1="173" y1="38" x2="232.1" y2="75.6"/>
	<line class="st2" x1="102.6" y1="61.1" x2="119" y2="47.7"/>
	<line class="st2" x1="164.4" y1="34.7" x2="119" y2="47.7"/>
	<line class="st2" x1="164.4" y1="34.7" x2="173" y2="38"/>
	<line class="st2" x1="45.5" y1="195.1" x2="92.7" y2="261.5"/>
	<line class="st2" x1="92.7" y1="261.5" x2="119.1" y2="268.9"/>
	<line class="st2" x1="45.5" y1="195.1" x2="45.8" y2="190.9"/>
	<line class="st2" x1="67.3" y1="110.8" x2="102.6" y2="61.1"/>
	<line class="st2" x1="45.8" y1="190.9" x2="67.3" y2="110.8"/>
	<path class="st2" d="M170.5,239.3c-17.1,9.9-34.3,19.8-51.4,29.7"/>
	<line class="st2" x1="215" y1="163.2" x2="170.5" y2="239.3"/>
</g>
</svg>
