<?xml version="1.0" encoding="utf-8"?>
<!-- Generator: Adobe Illustrator 21.1.0, SVG Export Plug-In . SVG Version: 6.00 Build 0)  -->
<svg version="1.1" xmlns="http://www.w3.org/2000/svg" xmlns:xlink="http://www.w3.org/1999/xlink" x="0px" y="0px"
	 viewBox="0 0 300 300" style="enable-background:new 0 0 300 300;" xml:space="preserve">
<style type="text/css">
	.st0{display:none;}
	.st1{display:inline;fill:none;stroke:#000000;stroke-linecap:round;stroke-linejoin:round;}
	.st2{fill:none;stroke:#000000;stroke-linecap:round;stroke-linejoin:round;}
</style>
<g id="_x31_" class="st0">
	<rect class="st1" width="300" height="300"/>
</g>
<g id="_x33_::030_-_Copy">
	<line class="st2" x1="124.7" y1="198.1" x2="103.4" y2="161.5"/>
	<line class="st2" x1="79.9" y1="254" x2="124.7" y2="198.1"/>
	<line class="st2" x1="103.4" y1="161.5" x2="45.5" y2="167.6"/>
	<path class="st2" d="M169.2,70.1c-21.9,30.4-43.9,60.9-65.8,91.3"/>
	<line class="st2" x1="216.1" y1="180.9" x2="124.7" y2="198.1"/>
	<line class="st2" x1="216.1" y1="180.9" x2="224.1" y2="169.5"/>
	<path class="st2" d="M230,161.1c-13-32-25.9-63.9-38.9-95.9"/>
	<line class="st2" x1="216.1" y1="180.9" x2="162.6" y2="260.4"/>
	<line class="st2" x1="224.1" y1="169.5" x2="230" y2="161.1"/>
	<line class="st2" x1="258.1" y1="125.5" x2="230" y2="161.1"/>
	<line class="st2" x1="258.1" y1="125.5" x2="220.1" y2="181.1"/>
	<line class="st2" x1="220.1" y1="181.1" x2="208.2" y2="197.5"/>
	<line class="st2" x1="220.6" y1="68.6" x2="258.1" y2="125.5"/>
	<line class="st2" x1="90.7" y1="90.4" x2="88.7" y2="90.8"/>
	<line class="st2" x1="169.2" y1="70.1" x2="88.7" y2="90.8"/>
	<line class="st2" x1="169.2" y1="70.1" x2="191.2" y2="65.2"/>
	<line class="st2" x1="215.3" y1="62.6" x2="191.2" y2="65.2"/>
	<line class="st2" x1="215.3" y1="62.6" x2="220.6" y2="68.6"/>
	<line class="st2" x1="45.5" y1="167.6" x2="79.9" y2="254"/>
	<line class="st2" x1="79.9" y1="254" x2="98.5" y2="268.9"/>
	<line class="st2" x1="45.5" y1="167.6" x2="45.7" y2="163.1"/>
	<line class="st2" x1="88.6" y1="91" x2="169.2" y2="70.1"/>
	<line class="st2" x1="45.7" y1="163.1" x2="88.6" y2="91"/>
	<path class="st2" d="M162.6,260.4c-21.4,2.9-42.8,5.7-64.1,8.6"/>
	<line class="st2" x1="208.2" y1="197.5" x2="162.6" y2="260.4"/>
	<line class="st2" x1="88.6" y1="91" x2="88.6" y2="90.9"/>
	<path class="st2" d="M88.6,90.9c0.4-0.1,0.8-0.2,1.2-0.3"/>
</g>
</svg>
