<?xml version="1.0" encoding="utf-8"?>
<!-- Generator: Adobe Illustrator 21.1.0, SVG Export Plug-In . SVG Version: 6.00 Build 0)  -->
<svg version="1.1" xmlns="http://www.w3.org/2000/svg" xmlns:xlink="http://www.w3.org/1999/xlink" x="0px" y="0px"
	 viewBox="0 0 300 300" style="enable-background:new 0 0 300 300;" xml:space="preserve">
<style type="text/css">
	.st0{display:none;}
	.st1{display:inline;fill:none;stroke:#000000;stroke-linecap:round;stroke-linejoin:round;}
	.st2{fill:none;stroke:#000000;stroke-linecap:round;stroke-linejoin:round;}
</style>
<g id="_x31_" class="st0">
	<rect class="st1" width="300" height="300"/>
</g>
<g id="_x33_::060_-_Copy">
	<line class="st2" x1="133" y1="206" x2="121.6" y2="161.8"/>
	<line class="st2" x1="53.8" y1="237" x2="133" y2="206"/>
	<line class="st2" x1="121.6" y1="161.8" x2="45.5" y2="138.1"/>
	<path class="st2" d="M203.5,98.3c-27.3,21.2-54.6,42.4-81.9,63.5"/>
	<line class="st2" x1="219.7" y1="222.2" x2="133" y2="206"/>
	<line class="st2" x1="219.7" y1="222.2" x2="229.3" y2="214.2"/>
	<path class="st2" d="M236.3,208.3c-4.1-35.4-8.1-70.7-12.2-106.1"/>
	<line class="st2" x1="219.7" y1="222.2" x2="121.2" y2="268.9"/>
	<line class="st2" x1="229.3" y1="214.2" x2="236.3" y2="208.3"/>
	<line class="st2" x1="113.9" y1="78.4" x2="102.2" y2="76.6"/>
	<line class="st2" x1="203.5" y1="98.3" x2="102.2" y2="76.6"/>
	<line class="st2" x1="203.5" y1="98.3" x2="224.2" y2="102.2"/>
	<line class="st2" x1="113.9" y1="78.4" x2="222.5" y2="99.4"/>
	<line class="st2" x1="222.5" y1="99.4" x2="224.2" y2="102.2"/>
	<line class="st2" x1="45.5" y1="138.1" x2="53.8" y2="237"/>
	<line class="st2" x1="53.8" y1="237" x2="59.4" y2="255.5"/>
	<line class="st2" x1="45.5" y1="138.1" x2="45.8" y2="133.1"/>
	<line class="st2" x1="102.1" y1="76.8" x2="203.5" y2="98.3"/>
	<line class="st2" x1="45.8" y1="133.1" x2="102.1" y2="76.8"/>
	<path class="st2" d="M121.2,268.9c-20.6-4.5-41.2-9-61.8-13.5"/>
	<line class="st2" x1="102.1" y1="76.8" x2="102.1" y2="76.7"/>
	<path class="st2" d="M102.1,76.7c0.3,0,0.6,0.1,0.9,0.1"/>
	<line class="st2" x1="114" y1="79.3" x2="114" y2="79.2"/>
</g>
</svg>
