<?xml version="1.0" encoding="utf-8"?>
<!-- Generator: Adobe Illustrator 21.1.0, SVG Export Plug-In . SVG Version: 6.00 Build 0)  -->
<svg version="1.1" xmlns="http://www.w3.org/2000/svg" xmlns:xlink="http://www.w3.org/1999/xlink" x="0px" y="0px"
	 viewBox="0 0 300 300" style="enable-background:new 0 0 300 300;" xml:space="preserve">
<style type="text/css">
	.st0{display:none;}
	.st1{display:inline;fill:none;stroke:#000000;stroke-linecap:round;stroke-linejoin:round;}
	.st2{fill:none;stroke:#000000;stroke-linecap:round;stroke-linejoin:round;}
</style>
<g id="_x31_" class="st0">
	<rect class="st1" width="300" height="300"/>
</g>
<g id="_x33_::090_-_Copy">
	<line class="st2" x1="146.2" y1="224" x2="149.3" y2="178.7"/>
	<line class="st2" x1="55.1" y1="221.7" x2="146.2" y2="224"/>
	<line class="st2" x1="149.3" y1="178.7" x2="79.9" y2="124.4"/>
	<path class="st2" d="M224.1,144.4c-24.9,11.4-49.9,22.8-74.8,34.3"/>
	<line class="st2" x1="204.1" y1="263.8" x2="146.2" y2="224"/>
	<line class="st2" x1="204.1" y1="263.8" x2="212.8" y2="259"/>
	<path class="st2" d="M219.2,255.5c6.1-33.7,12.1-67.4,18.2-101.1"/>
	<line class="st2" x1="204.1" y1="263.8" x2="88.8" y2="268.9"/>
	<line class="st2" x1="212.8" y1="259" x2="219.2" y2="255.5"/>
	<line class="st2" x1="135.9" y1="83" x2="135.4" y2="82.5"/>
	<line class="st2" x1="224.1" y1="144.4" x2="135.4" y2="82.5"/>
	<line class="st2" x1="224.1" y1="144.4" x2="237.4" y2="154.4"/>
	<line class="st2" x1="47.7" y1="179.3" x2="45.5" y2="238.2"/>
	<line class="st2" x1="79.9" y1="124.4" x2="55.1" y2="221.7"/>
	<line class="st2" x1="47.7" y1="179.3" x2="80.3" y2="119.2"/>
	<line class="st2" x1="55.1" y1="221.7" x2="45.5" y2="238.2"/>
	<line class="st2" x1="79.9" y1="124.4" x2="80.3" y2="119.2"/>
	<line class="st2" x1="135.3" y1="82.6" x2="224.1" y2="144.4"/>
	<line class="st2" x1="80.3" y1="119.2" x2="135.3" y2="82.6"/>
	<path class="st2" d="M88.8,268.9c-14.4-10.2-28.8-20.5-43.3-30.7"/>
	<line class="st2" x1="135.3" y1="82.6" x2="135.4" y2="82.5"/>
	<path class="st2" d="M135.4,82.5c0.1,0.1,0.2,0.2,0.3,0.3"/>
</g>
</svg>
