<?xml version="1.0" encoding="utf-8"?>
<!-- Generator: Adobe Illustrator 21.1.0, SVG Export Plug-In . SVG Version: 6.00 Build 0)  -->
<svg version="1.1" xmlns="http://www.w3.org/2000/svg" xmlns:xlink="http://www.w3.org/1999/xlink" x="0px" y="0px"
	 viewBox="0 0 300 300" style="enable-background:new 0 0 300 300;" xml:space="preserve">
<style type="text/css">
	.st0{display:none;}
	.st1{display:inline;fill:none;stroke:#000000;stroke-linecap:round;stroke-linejoin:round;}
	.st2{fill:none;stroke:#000000;stroke-linecap:round;stroke-linejoin:round;}
</style>
<g id="_x31_" class="st0">
	<rect class="st1" width="300" height="300"/>
</g>
<g id="_x33_::120_-_Copy">
	<line class="st2" x1="146.3" y1="220.3" x2="163.5" y2="179.5"/>
	<line class="st2" x1="68.3" y1="187" x2="146.3" y2="220.3"/>
	<line class="st2" x1="163.5" y1="179.5" x2="122.5" y2="104"/>
	<path class="st2" d="M214.2,165.4c-16.9,4.7-33.8,9.4-50.6,14"/>
	<line class="st2" x1="163.5" y1="268.9" x2="146.3" y2="220.3"/>
	<line class="st2" x1="163.5" y1="268.9" x2="169.7" y2="266.4"/>
	<path class="st2" d="M174.3,264.5c14.5-29.1,28.9-58.1,43.4-87.2"/>
	<line class="st2" x1="163.5" y1="268.9" x2="58.9" y2="235"/>
	<line class="st2" x1="169.7" y1="266.4" x2="174.3" y2="264.5"/>
	<line class="st2" x1="163.1" y1="77.5" x2="163.1" y2="77.5"/>
	<line class="st2" x1="214.2" y1="165.4" x2="163.1" y2="77.5"/>
	<line class="st2" x1="214.2" y1="165.4" x2="217.6" y2="177.3"/>
	<line class="st2" x1="47.1" y1="132.6" x2="45.5" y2="196.2"/>
	<line class="st2" x1="122.5" y1="104" x2="68.3" y2="187"/>
	<line class="st2" x1="47.1" y1="132.6" x2="123.2" y2="98.7"/>
	<line class="st2" x1="68.3" y1="187" x2="45.5" y2="196.2"/>
	<line class="st2" x1="122.5" y1="104" x2="123.2" y2="98.7"/>
	<line class="st2" x1="163" y1="77.6" x2="214.2" y2="165.4"/>
	<line class="st2" x1="123.2" y1="98.7" x2="163" y2="77.6"/>
	<path class="st2" d="M58.9,235c-4.5-12.9-8.9-25.9-13.4-38.8"/>
	<line class="st2" x1="163" y1="77.5" x2="163.1" y2="77.5"/>
	<path class="st2" d="M163,77.5c-1.7,0.6-3.4,1.1-5.1,1.7"/>
	<line class="st2" x1="157.9" y1="79.3" x2="157.9" y2="79.3"/>
	<path class="st2" d="M126.3,93.4c10.5-4.7,21-9.4,31.5-14.1"/>
	<line class="st2" x1="56.4" y1="126" x2="126.3" y2="93.4"/>
	<path class="st2" d="M47.1,132.6c3.1-2.2,6.2-4.4,9.4-6.6"/>
</g>
</svg>
