<?xml version="1.0" encoding="utf-8"?>
<!-- Generator: Adobe Illustrator 21.1.0, SVG Export Plug-In . SVG Version: 6.00 Build 0)  -->
<svg version="1.1" xmlns="http://www.w3.org/2000/svg" xmlns:xlink="http://www.w3.org/1999/xlink" x="0px" y="0px"
	 viewBox="0 0 300 300" style="enable-background:new 0 0 300 300;" xml:space="preserve">
<style type="text/css">
	.st0{display:none;}
	.st1{display:inline;fill:none;stroke:#000000;stroke-linecap:round;stroke-linejoin:round;}
	.st2{fill:none;stroke:#000000;stroke-linecap:round;stroke-linejoin:round;}
</style>
<g id="_x31_" class="st0">
	<rect class="st1" width="300" height="300"/>
</g>
<g id="_x33_::150_-_Copy">
	<line class="st2" x1="149.5" y1="226.4" x2="176.8" y2="194"/>
	<line class="st2" x1="106" y1="173" x2="149.5" y2="226.4"/>
	<line class="st2" x1="176.8" y1="194" x2="176.1" y2="113"/>
	<path class="st2" d="M194.7,187.2c-6,2.3-12,4.5-17.9,6.8"/>
	<line class="st2" x1="124.3" y1="268.9" x2="149.5" y2="226.4"/>
	<line class="st2" x1="124.3" y1="268.9" x2="127.1" y2="267.3"/>
	<path class="st2" d="M129.2,266.1c19.8-22.9,39.6-45.9,59.4-68.8"/>
	<line class="st2" x1="124.3" y1="268.9" x2="55" y2="206"/>
	<line class="st2" x1="127.1" y1="267.3" x2="129.2" y2="266.1"/>
	<line class="st2" x1="45.5" y1="140.9" x2="47.5" y2="154.1"/>
	<line class="st2" x1="49.6" y1="132" x2="45.5" y2="140.9"/>
	<line class="st2" x1="194.7" y1="187.2" x2="188.6" y2="197.3"/>
	<line class="st2" x1="80" y1="103.1" x2="76.3" y2="171.3"/>
	<line class="st2" x1="176.1" y1="113" x2="106" y2="173"/>
	<line class="st2" x1="80" y1="103.1" x2="177.2" y2="107.9"/>
	<line class="st2" x1="106" y1="173" x2="76.3" y2="171.3"/>
	<line class="st2" x1="176.1" y1="113" x2="177.2" y2="107.9"/>
	<line class="st2" x1="193.1" y1="93" x2="194.7" y2="187.2"/>
	<line class="st2" x1="177.2" y1="107.9" x2="193.1" y2="93"/>
	<path class="st2" d="M55,206c7.1-11.6,14.2-23.1,21.3-34.7"/>
	<line class="st2" x1="47.5" y1="154.1" x2="55" y2="206"/>
	<line class="st2" x1="68.2" y1="91.3" x2="49.6" y2="132"/>
	<path class="st2" d="M193.1,93c-3.8-1-7.6-2.1-11.4-3.1"/>
	<line class="st2" x1="181.6" y1="89.9" x2="181.7" y2="89.9"/>
	<path class="st2" d="M143,88.1c12.9,0.6,25.7,1.2,38.6,1.8"/>
	<line class="st2" x1="68.2" y1="91.3" x2="143" y2="88.1"/>
	<path class="st2" d="M80,103.1c-4-3.9-7.9-7.9-11.9-11.8"/>
</g>
</svg>
