<?xml version="1.0" encoding="utf-8"?>
<!-- Generator: Adobe Illustrator 21.1.0, SVG Export Plug-In . SVG Version: 6.00 Build 0)  -->
<svg version="1.1" xmlns="http://www.w3.org/2000/svg" xmlns:xlink="http://www.w3.org/1999/xlink" x="0px" y="0px"
	 viewBox="0 0 300 300" style="enable-background:new 0 0 300 300;" xml:space="preserve">
<style type="text/css">
	.st0{display:none;}
	.st1{display:inline;fill:none;stroke:#000000;stroke-linecap:round;stroke-linejoin:round;}
	.st2{fill:none;stroke:#000000;stroke-linecap:round;stroke-linejoin:round;}
</style>
<g id="_x31_" class="st0">
	<rect class="st1" width="300" height="300"/>
</g>
<g id="_x33_::180_-_Copy">
	<line class="st2" x1="145.5" y1="245.6" x2="176.1" y2="223.5"/>
	<line class="st2" x1="147.9" y1="189.3" x2="145.5" y2="245.6"/>
	<line class="st2" x1="176.1" y1="223.5" x2="214.7" y2="153.9"/>
	<line class="st2" x1="85.4" y1="268.9" x2="145.5" y2="245.6"/>
	<line class="st2" x1="85.4" y1="268.9" x2="84.5" y2="266.9"/>
	<line class="st2" x1="85.4" y1="268.9" x2="70" y2="194.2"/>
	<line class="st2" x1="84.5" y1="266.9" x2="83.8" y2="265.4"/>
	<line class="st2" x1="52.9" y1="151" x2="83.8" y2="265.4"/>
	<line class="st2" x1="52.9" y1="151" x2="45.5" y2="113.2"/>
	<line class="st2" x1="45.5" y1="113.2" x2="50.6" y2="129.9"/>
	<line class="st2" x1="55.4" y1="107.4" x2="45.5" y2="113.2"/>
	<line class="st2" x1="128.7" y1="106.2" x2="120.6" y2="176.4"/>
	<line class="st2" x1="214.7" y1="153.9" x2="147.9" y2="189.3"/>
	<line class="st2" x1="128.7" y1="106.2" x2="216" y2="149.1"/>
	<line class="st2" x1="147.9" y1="189.3" x2="120.6" y2="176.4"/>
	<line class="st2" x1="214.7" y1="153.9" x2="216" y2="149.1"/>
	<line class="st2" x1="216" y1="149.1" x2="207.4" y2="130.4"/>
	<path class="st2" d="M70,194.2c16.9-5.9,33.8-11.9,50.7-17.8"/>
	<line class="st2" x1="50.6" y1="129.9" x2="70" y2="194.2"/>
	<line class="st2" x1="100.3" y1="81.4" x2="55.4" y2="107.4"/>
	<path class="st2" d="M207.3,130.4c-4.5-3.1-9.1-6.1-13.6-9.1"/>
	<line class="st2" x1="193.6" y1="121.2" x2="193.7" y2="121.2"/>
	<path class="st2" d="M159.2,104.1c11.5,5.7,23,11.4,34.4,17.1"/>
	<line class="st2" x1="100.3" y1="81.4" x2="159.2" y2="104.1"/>
	<path class="st2" d="M128.7,106.2c-9.5-8.3-18.9-16.5-28.4-24.8"/>
</g>
</svg>
