<?xml version="1.0" encoding="utf-8"?>
<!-- Generator: Adobe Illustrator 21.1.0, SVG Export Plug-In . SVG Version: 6.00 Build 0)  -->
<svg version="1.1" xmlns="http://www.w3.org/2000/svg" xmlns:xlink="http://www.w3.org/1999/xlink" x="0px" y="0px"
	 viewBox="0 0 300 300" style="enable-background:new 0 0 300 300;" xml:space="preserve">
<style type="text/css">
	.st0{display:none;}
	.st1{display:inline;fill:none;stroke:#000000;stroke-linecap:round;stroke-linejoin:round;}
	.st2{fill:none;stroke:#000000;stroke-linecap:round;stroke-linejoin:round;}
</style>
<g id="_x31_" class="st0">
	<rect class="st1" width="300" height="300"/>
</g>
<g id="_x33_::210_-_Copy">
	<line class="st2" x1="139.1" y1="268.9" x2="166.7" y2="255.7"/>
	<line class="st2" x1="185.6" y1="225.7" x2="139.1" y2="268.9"/>
	<line class="st2" x1="166.7" y1="255.7" x2="233.4" y2="208.1"/>
	<line class="st2" x1="57.8" y1="264.3" x2="139.1" y2="268.9"/>
	<line class="st2" x1="57.8" y1="264.3" x2="53.4" y2="260.5"/>
	<line class="st2" x1="57.8" y1="264.3" x2="102.8" y2="198.1"/>
	<line class="st2" x1="53.4" y1="260.5" x2="50.2" y2="257.7"/>
	<line class="st2" x1="45.5" y1="127.4" x2="50.2" y2="257.7"/>
	<line class="st2" x1="45.5" y1="127.4" x2="73.8" y2="95.9"/>
	<line class="st2" x1="73.8" y1="95.9" x2="79.9" y2="117.3"/>
	<line class="st2" x1="87.4" y1="95.3" x2="73.8" y2="95.9"/>
	<line class="st2" x1="182.1" y1="134.6" x2="168.7" y2="204.9"/>
	<line class="st2" x1="233.4" y1="208.1" x2="185.6" y2="225.7"/>
	<line class="st2" x1="182.1" y1="134.6" x2="234.8" y2="203.6"/>
	<line class="st2" x1="185.6" y1="225.7" x2="168.7" y2="204.9"/>
	<line class="st2" x1="233.4" y1="208.1" x2="234.8" y2="203.6"/>
	<path class="st2" d="M102.8,198.1c22,2.3,43.9,4.5,65.9,6.8"/>
	<line class="st2" x1="79.9" y1="117.3" x2="102.8" y2="198.1"/>
	<line class="st2" x1="147.4" y1="92.4" x2="87.4" y2="95.3"/>
	<path class="st2" d="M182.1,134.6c-11.6-14-23.1-28.1-34.7-42.1"/>
</g>
</svg>
