<?xml version="1.0" encoding="utf-8"?>
<!-- Generator: Adobe Illustrator 21.1.0, SVG Export Plug-In . SVG Version: 6.00 Build 0)  -->
<svg version="1.1" xmlns="http://www.w3.org/2000/svg" xmlns:xlink="http://www.w3.org/1999/xlink" x="0px" y="0px"
	 viewBox="0 0 300 300" style="enable-background:new 0 0 300 300;" xml:space="preserve">
<style type="text/css">
	.st0{display:none;}
	.st1{display:inline;fill:none;stroke:#000000;stroke-linecap:round;stroke-linejoin:round;}
	.st2{fill:none;stroke:#000000;stroke-linecap:round;stroke-linejoin:round;}
</style>
<g id="_x31_" class="st0">
	<rect class="st1" width="300" height="300"/>
</g>
<g id="_x33_::240_-_Copy">
	<line class="st2" x1="215.9" y1="251.8" x2="139.1" y2="268.9"/>
	<line class="st2" x1="57.2" y1="233.2" x2="139.1" y2="268.9"/>
	<line class="st2" x1="57.2" y1="233.2" x2="50.4" y2="226.4"/>
	<line class="st2" x1="57.2" y1="233.2" x2="153.5" y2="197.3"/>
	<line class="st2" x1="50.4" y1="226.4" x2="45.5" y2="221.5"/>
	<line class="st2" x1="75.6" y1="87.2" x2="45.5" y2="221.5"/>
	<line class="st2" x1="75.6" y1="87.2" x2="133.9" y2="77"/>
	<line class="st2" x1="133.9" y1="77" x2="138" y2="102.5"/>
	<line class="st2" x1="147" y1="82.2" x2="133.9" y2="77"/>
	<line class="st2" x1="231.8" y1="161.7" x2="214" y2="228.9"/>
	<line class="st2" x1="235.2" y1="241.5" x2="215.9" y2="251.8"/>
	<line class="st2" x1="231.8" y1="161.7" x2="236.5" y2="237.3"/>
	<line class="st2" x1="215.9" y1="251.8" x2="214" y2="228.9"/>
	<line class="st2" x1="235.2" y1="241.5" x2="236.5" y2="237.3"/>
	<path class="st2" d="M153.5,197.3c20.2,10.5,40.3,21,60.5,31.6"/>
	<line class="st2" x1="138" y1="102.5" x2="153.5" y2="197.3"/>
	<line class="st2" x1="203.6" y1="104.3" x2="147" y2="82.2"/>
	<path class="st2" d="M231.8,161.7c-9.4-19.1-18.8-38.3-28.2-57.4"/>
</g>
</svg>
