<?xml version="1.0" encoding="utf-8"?>
<!-- Generator: Adobe Illustrator 21.1.0, SVG Export Plug-In . SVG Version: 6.00 Build 0)  -->
<svg version="1.1" xmlns="http://www.w3.org/2000/svg" xmlns:xlink="http://www.w3.org/1999/xlink" x="0px" y="0px"
	 viewBox="0 0 300 300" style="enable-background:new 0 0 300 300;" xml:space="preserve">
<style type="text/css">
	.st0{display:none;}
	.st1{display:inline;fill:none;stroke:#000000;stroke-linecap:round;stroke-linejoin:round;}
	.st2{fill:none;stroke:#000000;stroke-linecap:round;stroke-linejoin:round;}
</style>
<g id="_x31_" class="st0">
	<rect class="st1" width="300" height="300"/>
</g>
<g id="_x33_::270_-_Copy">
	<line class="st2" x1="203.4" y1="268.9" x2="117.5" y2="254.9"/>
	<line class="st2" x1="57.7" y1="192.9" x2="117.5" y2="254.9"/>
	<line class="st2" x1="57.7" y1="192.9" x2="50.7" y2="182.7"/>
	<line class="st2" x1="57.7" y1="192.9" x2="179" y2="201.4"/>
	<line class="st2" x1="50.7" y1="182.7" x2="45.5" y2="175.2"/>
	<line class="st2" x1="109.3" y1="52.5" x2="45.5" y2="175.2"/>
	<line class="st2" x1="109.3" y1="52.5" x2="179.8" y2="72.5"/>
	<line class="st2" x1="179.8" y1="72.5" x2="179.7" y2="100"/>
	<line class="st2" x1="188.3" y1="82" x2="179.8" y2="72.5"/>
	<line class="st2" x1="236" y1="187.6" x2="216.3" y2="249.7"/>
	<line class="st2" x1="203.4" y1="268.9" x2="216.3" y2="249.7"/>
	<path class="st2" d="M179,201.4c12.4,16.1,24.9,32.2,37.3,48.3"/>
	<line class="st2" x1="179.7" y1="100" x2="179" y2="201.4"/>
	<line class="st2" x1="224.1" y1="121.9" x2="188.3" y2="82"/>
	<path class="st2" d="M236,187.6c-4-21.9-7.9-43.8-11.9-65.7"/>
</g>
</svg>
