<?xml version="1.0" encoding="utf-8"?>
<!-- Generator: Adobe Illustrator 21.1.0, SVG Export Plug-In . SVG Version: 6.00 Build 0)  -->
<svg version="1.1" xmlns="http://www.w3.org/2000/svg" xmlns:xlink="http://www.w3.org/1999/xlink" x="0px" y="0px"
	 viewBox="0 0 300 300" style="enable-background:new 0 0 300 300;" xml:space="preserve">
<style type="text/css">
	.st0{display:none;}
	.st1{display:inline;fill:none;stroke:#000000;stroke-linecap:round;stroke-linejoin:round;}
	.st2{fill:none;stroke:#000000;stroke-linecap:round;stroke-linejoin:round;}
</style>
<g id="_x31_" class="st0">
	<rect class="st1" width="300" height="300"/>
</g>
<g id="_x33_::300_-_Copy">
	<line class="st2" x1="93.4" y1="227.2" x2="86" y2="219.2"/>
	<line class="st2" x1="165.6" y1="268.9" x2="93.4" y2="227.2"/>
	<path class="st2" d="M50.6,121.8c11.8,32.5,23.6,65,35.4,97.4"/>
	<line class="st2" x1="74.2" y1="152.6" x2="93.4" y2="227.2"/>
	<line class="st2" x1="74.2" y1="152.6" x2="69.5" y2="139.6"/>
	<path class="st2" d="M66,130c-6.8-9-13.6-17.9-20.5-26.9"/>
	<line class="st2" x1="74.2" y1="152.6" x2="183.8" y2="205.3"/>
	<line class="st2" x1="69.5" y1="139.6" x2="66" y2="130"/>
	<line class="st2" x1="149.4" y1="32.9" x2="66" y2="130"/>
	<line class="st2" x1="149.4" y1="32.9" x2="208.5" y2="81.1"/>
	<line class="st2" x1="208.5" y1="81.1" x2="203.3" y2="107.5"/>
	<line class="st2" x1="102.1" y1="49.6" x2="149.4" y2="32.9"/>
	<line class="st2" x1="209.9" y1="91.7" x2="208.5" y2="81.1"/>
	<line class="st2" x1="50.6" y1="121.8" x2="45.5" y2="103.2"/>
	<line class="st2" x1="94.8" y1="53.9" x2="45.5" y2="103.2"/>
	<line class="st2" x1="94.8" y1="53.9" x2="102.1" y2="49.6"/>
	<line class="st2" x1="207.8" y1="201.2" x2="188.8" y2="257.6"/>
	<line class="st2" x1="165.6" y1="268.9" x2="188.8" y2="257.6"/>
	<path class="st2" d="M183.8,205.3c1.7,17.4,3.3,34.9,5,52.3"/>
	<line class="st2" x1="203.3" y1="107.5" x2="183.8" y2="205.3"/>
	<line class="st2" x1="215.7" y1="136.4" x2="209.9" y2="91.7"/>
	<path class="st2" d="M207.8,201.2c2.6-21.6,5.3-43.2,7.9-64.8"/>
</g>
</svg>
