<?xml version="1.0" encoding="utf-8"?>
<!-- Generator: Adobe Illustrator 21.1.0, SVG Export Plug-In . SVG Version: 6.00 Build 0)  -->
<svg version="1.1" xmlns="http://www.w3.org/2000/svg" xmlns:xlink="http://www.w3.org/1999/xlink" x="0px" y="0px"
	 viewBox="0 0 300 300" style="enable-background:new 0 0 300 300;" xml:space="preserve">
<style type="text/css">
	.st0{display:none;}
	.st1{display:inline;fill:none;stroke:#000000;stroke-linecap:round;stroke-linejoin:round;}
	.st2{fill:none;stroke:#000000;stroke-linecap:round;stroke-linejoin:round;}
</style>
<g id="_x31_" class="st0">
	<rect class="st1" width="300" height="300"/>
</g>
<g id="_x33_::330_-_Copy">
	<line class="st2" x1="68" y1="208.7" x2="50" y2="193.4"/>
	<line class="st2" x1="109.4" y1="268.9" x2="68" y2="208.7"/>
	<line class="st2" x1="50" y1="193.4" x2="63.7" y2="224.3"/>
	<path class="st2" d="M45.5,84.5c1.5,36.3,3,72.6,4.5,109"/>
	<line class="st2" x1="96.2" y1="138.5" x2="68" y2="208.7"/>
	<line class="st2" x1="96.2" y1="138.5" x2="95.6" y2="124.2"/>
	<path class="st2" d="M95.2,113.5C80.6,97.8,66.1,82,51.5,66.2"/>
	<line class="st2" x1="96.2" y1="138.5" x2="163.6" y2="221.9"/>
	<line class="st2" x1="95.6" y1="124.2" x2="95.2" y2="113.5"/>
	<line class="st2" x1="177.6" y1="45.3" x2="95.2" y2="113.5"/>
	<line class="st2" x1="177.6" y1="45.3" x2="208.1" y2="110.3"/>
	<line class="st2" x1="208.1" y1="110.3" x2="198.7" y2="133.9"/>
	<line class="st2" x1="114.9" y1="35.2" x2="177.6" y2="45.3"/>
	<line class="st2" x1="45.5" y1="84.5" x2="51.5" y2="66.2"/>
	<line class="st2" x1="105.6" y1="35.8" x2="51.5" y2="66.2"/>
	<line class="st2" x1="105.6" y1="35.8" x2="114.9" y2="35.2"/>
	<line class="st2" x1="63.7" y1="224.3" x2="109.4" y2="268.9"/>
	<line class="st2" x1="109.4" y1="268.9" x2="137.1" y2="267"/>
	<line class="st2" x1="163.6" y1="221.9" x2="137.1" y2="267"/>
	<line class="st2" x1="198.7" y1="133.9" x2="163.6" y2="221.9"/>
</g>
</svg>
