<?xml version="1.0" encoding="utf-8"?>
<!-- Generator: Adobe Illustrator 21.1.0, SVG Export Plug-In . SVG Version: 6.00 Build 0)  -->
<svg version="1.1" xmlns="http://www.w3.org/2000/svg" xmlns:xlink="http://www.w3.org/1999/xlink" x="0px" y="0px"
	 viewBox="0 0 300 300" style="enable-background:new 0 0 300 300;" xml:space="preserve">
<style type="text/css">
	.st0{display:none;}
	.st1{display:inline;fill:none;stroke:#000000;stroke-linecap:round;stroke-linejoin:round;}
	.st2{fill:none;stroke:#000000;stroke-linecap:round;stroke-linejoin:round;}
</style>
<g id="_x31_" class="st0">
	<rect class="st1" width="300" height="300"/>
</g>
<g id="_x34_::000_-_Copy">
	<line class="st2" x1="231.3" y1="152.2" x2="227.3" y2="163.4"/>
	<line class="st2" x1="231.3" y1="152.2" x2="232.2" y2="95.1"/>
	<line class="st2" x1="227.3" y1="163.4" x2="224.4" y2="171.7"/>
	<line class="st2" x1="163.7" y1="268.9" x2="224.4" y2="171.7"/>
	<line class="st2" x1="163.7" y1="268.9" x2="168.7" y2="221.1"/>
	<line class="st2" x1="168.7" y1="221.1" x2="183.6" y2="191.6"/>
	<line class="st2" x1="107.5" y1="256" x2="163.7" y2="268.9"/>
	<line class="st2" x1="159.2" y1="210.2" x2="168.7" y2="221.1"/>
	<line class="st2" x1="46.3" y1="145" x2="47.1" y2="135.1"/>
	<line class="st2" x1="47.1" y1="135.2" x2="47.1" y2="135.1"/>
	<line class="st2" x1="62.8" y1="171.9" x2="107.5" y2="256"/>
	<line class="st2" x1="103.3" y1="251.7" x2="107.5" y2="256"/>
	<line class="st2" x1="45.5" y1="155" x2="103.3" y2="251.7"/>
	<line class="st2" x1="133.9" y1="88.7" x2="199.9" y2="39.4"/>
	<line class="st2" x1="95.3" y1="52.7" x2="185.6" y2="30.9"/>
	<line class="st2" x1="133.9" y1="88.7" x2="89.6" y2="56"/>
	<line class="st2" x1="185.6" y1="30.9" x2="199.9" y2="39.4"/>
	<line class="st2" x1="95.3" y1="52.7" x2="89.6" y2="56"/>
	<line class="st2" x1="89.6" y1="56" x2="47.2" y2="134.9"/>
	<path class="st2" d="M232.2,95.1c-10.8-18.5-21.5-37.1-32.3-55.6"/>
	<line class="st2" x1="183.6" y1="191.6" x2="232.2" y2="95.1"/>
	<line class="st2" x1="116.3" y1="161.3" x2="159.2" y2="210.2"/>
	<line class="st2" x1="47.2" y1="134.9" x2="47.1" y2="135"/>
	<path class="st2" d="M47.1,135c-0.6,6.6-1.1,13.3-1.6,19.9"/>
	<line class="st2" x1="45.5" y1="155" x2="45.5" y2="155"/>
	<path class="st2" d="M62.8,171.9c-5.8-5.6-11.5-11.3-17.3-16.9"/>
	<line class="st2" x1="116.3" y1="161.3" x2="62.8" y2="171.9"/>
	<path class="st2" d="M133.9,88.7c-5.9,24.2-11.7,48.4-17.6,72.7"/>
</g>
</svg>
