<?xml version="1.0" encoding="utf-8"?>
<!-- Generator: Adobe Illustrator 21.1.0, SVG Export Plug-In . SVG Version: 6.00 Build 0)  -->
<svg version="1.1" xmlns="http://www.w3.org/2000/svg" xmlns:xlink="http://www.w3.org/1999/xlink" x="0px" y="0px"
	 viewBox="0 0 300 300" style="enable-background:new 0 0 300 300;" xml:space="preserve">
<style type="text/css">
	.st0{display:none;}
	.st1{display:inline;fill:none;stroke:#000000;stroke-linecap:round;stroke-linejoin:round;}
	.st2{fill:none;stroke:#000000;stroke-linecap:round;stroke-linejoin:round;}
</style>
<g id="_x31_" class="st0">
	<rect class="st1" width="300" height="300"/>
</g>
<g id="_x34_::030_-_Copy">
	<line class="st2" x1="225" y1="179.4" x2="217.4" y2="186.9"/>
	<line class="st2" x1="225" y1="179.4" x2="230.4" y2="151.7"/>
	<line class="st2" x1="217.4" y1="186.9" x2="211.8" y2="192.4"/>
	<line class="st2" x1="103.4" y1="268.9" x2="211.8" y2="192.4"/>
	<line class="st2" x1="103.4" y1="268.9" x2="113.9" y2="245.1"/>
	<line class="st2" x1="113.9" y1="245.1" x2="140.3" y2="223.9"/>
	<line class="st2" x1="67.2" y1="224.9" x2="103.4" y2="268.9"/>
	<line class="st2" x1="108.9" y1="232.6" x2="113.9" y2="245.1"/>
	<line class="st2" x1="48.2" y1="146.8" x2="67.2" y2="224.9"/>
	<line class="st2" x1="133.6" y1="114.7" x2="222.1" y2="89"/>
	<line class="st2" x1="128.6" y1="46" x2="216.9" y2="69.4"/>
	<line class="st2" x1="133.6" y1="114.7" x2="121.8" y2="47"/>
	<line class="st2" x1="216.9" y1="69.4" x2="222.1" y2="89"/>
	<line class="st2" x1="128.6" y1="46" x2="121.8" y2="47"/>
	<line class="st2" x1="121.8" y1="47" x2="56.1" y2="97.7"/>
	<path class="st2" d="M230.4,151.7c-2.8-20.9-5.6-41.8-8.3-62.7"/>
	<line class="st2" x1="140.3" y1="223.9" x2="230.4" y2="151.7"/>
	<line class="st2" x1="86.5" y1="175.8" x2="108.9" y2="232.6"/>
	<line class="st2" x1="56.1" y1="97.7" x2="56" y2="97.7"/>
	<path class="st2" d="M56,97.7c-3.5,6.4-7,12.8-10.5,19.2"/>
	<line class="st2" x1="45.5" y1="116.9" x2="45.5" y2="116.9"/>
	<path class="st2" d="M48.2,146.8c-0.9-9.9-1.8-19.9-2.7-29.8"/>
	<line class="st2" x1="86.5" y1="175.8" x2="48.2" y2="146.8"/>
	<path class="st2" d="M133.6,114.7c-15.7,20.3-31.4,40.7-47.1,61"/>
</g>
</svg>
