<?xml version="1.0" encoding="utf-8"?>
<!-- Generator: Adobe Illustrator 21.1.0, SVG Export Plug-In . SVG Version: 6.00 Build 0)  -->
<svg version="1.1" xmlns="http://www.w3.org/2000/svg" xmlns:xlink="http://www.w3.org/1999/xlink" x="0px" y="0px"
	 viewBox="0 0 300 300" style="enable-background:new 0 0 300 300;" xml:space="preserve">
<style type="text/css">
	.st0{display:none;}
	.st1{display:inline;fill:none;stroke:#000000;stroke-linecap:round;stroke-linejoin:round;}
	.st2{fill:none;stroke:#000000;stroke-linecap:round;stroke-linejoin:round;}
</style>
<g id="_x31_" class="st0">
	<rect class="st1" width="300" height="300"/>
</g>
<g id="_x34_::060_-_Copy">
	<line class="st2" x1="221" y1="159.4" x2="220.9" y2="171.8"/>
	<line class="st2" x1="205" y1="234.4" x2="220.9" y2="171.8"/>
	<line class="st2" x1="205" y1="234.4" x2="199.6" y2="238.1"/>
	<line class="st2" x1="55.3" y1="268.2" x2="59.4" y2="268.9"/>
	<line class="st2" x1="59.4" y1="268.9" x2="90.5" y2="262.1"/>
	<line class="st2" x1="47.2" y1="206.8" x2="55.3" y2="268.2"/>
	<line class="st2" x1="58.7" y1="257.6" x2="59.4" y2="268.9"/>
	<line class="st2" x1="68.2" y1="106" x2="76.7" y2="99.2"/>
	<line class="st2" x1="76.8" y1="99.3" x2="76.7" y2="99.2"/>
	<line class="st2" x1="45.5" y1="147.3" x2="47.2" y2="206.8"/>
	<line class="st2" x1="118.9" y1="173.2" x2="213.4" y2="184.3"/>
	<line class="st2" x1="155.8" y1="91.6" x2="221" y2="159.4"/>
	<line class="st2" x1="118.9" y1="173.2" x2="149.1" y2="89.7"/>
	<line class="st2" x1="221" y1="159.4" x2="213.4" y2="184.3"/>
	<line class="st2" x1="155.8" y1="91.6" x2="149.1" y2="89.7"/>
	<line class="st2" x1="149.1" y1="89.7" x2="76.9" y2="99.2"/>
	<path class="st2" d="M199.6,238.1c4.6-17.9,9.2-35.9,13.8-53.8"/>
	<line class="st2" x1="90.5" y1="262.1" x2="199.6" y2="238.1"/>
	<line class="st2" x1="55.1" y1="205.2" x2="58.7" y2="257.6"/>
	<line class="st2" x1="76.9" y1="99.2" x2="76.8" y2="99.2"/>
	<path class="st2" d="M76.8,99.2c-5.8,4.5-11.5,9.1-17.2,13.7"/>
	<line class="st2" x1="59.6" y1="113" x2="59.6" y2="112.9"/>
	<path class="st2" d="M45.5,147.3c4.7-11.5,9.4-22.9,14-34.4"/>
	<line class="st2" x1="55.1" y1="205.2" x2="45.5" y2="147.3"/>
	<path class="st2" d="M118.9,173.2c-21.3,10.7-42.5,21.3-63.8,32"/>
</g>
</svg>
