<?xml version="1.0" encoding="utf-8"?>
<!-- Generator: Adobe Illustrator 21.1.0, SVG Export Plug-In . SVG Version: 6.00 Build 0)  -->
<svg version="1.1" xmlns="http://www.w3.org/2000/svg" xmlns:xlink="http://www.w3.org/1999/xlink" x="0px" y="0px"
	 viewBox="0 0 300 300" style="enable-background:new 0 0 300 300;" xml:space="preserve">
<style type="text/css">
	.st0{display:none;}
	.st1{display:inline;fill:none;stroke:#000000;stroke-linecap:round;stroke-linejoin:round;}
	.st2{fill:none;stroke:#000000;stroke-linecap:round;stroke-linejoin:round;}
</style>
<g id="_x31_" class="st0">
	<rect class="st1" width="300" height="300"/>
</g>
<g id="_x34_::090_-_Copy">
	<line class="st2" x1="232.5" y1="205.9" x2="220.5" y2="164.8"/>
	<line class="st2" x1="219.9" y1="216" x2="232.5" y2="205.9"/>
	<line class="st2" x1="220.5" y1="164.8" x2="194.6" y2="119"/>
	<line class="st2" x1="202.2" y1="242" x2="232.5" y2="205.9"/>
	<line class="st2" x1="202.2" y1="242" x2="173.9" y2="268.9"/>
	<line class="st2" x1="45.5" y1="228" x2="73.5" y2="237"/>
	<line class="st2" x1="47.4" y1="219.9" x2="45.5" y2="228"/>
	<line class="st2" x1="110.1" y1="82.9" x2="130.4" y2="78.4"/>
	<line class="st2" x1="130.4" y1="78.5" x2="130.4" y2="78.4"/>
	<line class="st2" x1="110.1" y1="82.9" x2="110.1" y2="83"/>
	<line class="st2" x1="119" y1="187.8" x2="199.9" y2="237.9"/>
	<line class="st2" x1="194.6" y1="119" x2="219.9" y2="216"/>
	<line class="st2" x1="119" y1="187.8" x2="189.2" y2="114.2"/>
	<line class="st2" x1="219.9" y1="216" x2="199.9" y2="237.9"/>
	<line class="st2" x1="194.6" y1="119" x2="189.2" y2="114.2"/>
	<line class="st2" x1="189.2" y1="114.2" x2="130.5" y2="78.5"/>
	<path class="st2" d="M173.9,268.9c8.7-10.4,17.3-20.7,26-31.1"/>
	<line class="st2" x1="73.5" y1="237" x2="173.9" y2="268.9"/>
	<line class="st2" x1="55.9" y1="182.1" x2="47.4" y2="219.9"/>
	<line class="st2" x1="130.5" y1="78.5" x2="130.4" y2="78.4"/>
	<path class="st2" d="M130.4,78.4c-6.8,1.5-13.6,3-20.4,4.5"/>
	<line class="st2" x1="110" y1="83" x2="110.1" y2="82.9"/>
	<path class="st2" d="M80.6,112.7c9.8-9.9,19.6-19.8,29.4-29.7"/>
	<line class="st2" x1="55.9" y1="182.1" x2="80.6" y2="112.7"/>
	<path class="st2" d="M119,187.8c-21-1.9-42-3.7-63.1-5.6"/>
</g>
</svg>
