<?xml version="1.0" encoding="utf-8"?>
<!-- Generator: Adobe Illustrator 21.1.0, SVG Export Plug-In . SVG Version: 6.00 Build 0)  -->
<svg version="1.1" xmlns="http://www.w3.org/2000/svg" xmlns:xlink="http://www.w3.org/1999/xlink" x="0px" y="0px"
	 viewBox="0 0 300 300" style="enable-background:new 0 0 300 300;" xml:space="preserve">
<style type="text/css">
	.st0{display:none;}
	.st1{display:inline;fill:none;stroke:#000000;stroke-linecap:round;stroke-linejoin:round;}
	.st2{fill:none;stroke:#000000;stroke-linecap:round;stroke-linejoin:round;}
</style>
<g id="_x31_" class="st0">
	<rect class="st1" width="300" height="300"/>
</g>
<g id="_x34_::120_-_Copy">
	<line class="st2" x1="219" y1="230.9" x2="224.9" y2="189.7"/>
	<line class="st2" x1="185.9" y1="255.1" x2="219" y2="230.9"/>
	<line class="st2" x1="224.9" y1="189.7" x2="205.4" y2="154.7"/>
	<path class="st2" d="M199.6,117.6c8.4,24,16.9,48.1,25.3,72.1"/>
	<line class="st2" x1="45.5" y1="167.9" x2="64.8" y2="189.9"/>
	<line class="st2" x1="48" y1="164.1" x2="45.5" y2="167.9"/>
	<line class="st2" x1="156.7" y1="67.7" x2="175.6" y2="74.2"/>
	<line class="st2" x1="175.6" y1="74.3" x2="175.6" y2="74.2"/>
	<line class="st2" x1="156.7" y1="67.7" x2="156.6" y2="67.7"/>
	<line class="st2" x1="105.9" y1="187.6" x2="158.1" y2="266.5"/>
	<line class="st2" x1="205.4" y1="154.7" x2="185.9" y2="255.1"/>
	<line class="st2" x1="105.9" y1="187.6" x2="202.6" y2="147.9"/>
	<line class="st2" x1="185.9" y1="255.1" x2="158.1" y2="266.5"/>
	<line class="st2" x1="205.4" y1="154.7" x2="202.6" y2="147.9"/>
	<line class="st2" x1="175.6" y1="74.3" x2="199.6" y2="117.6"/>
	<line class="st2" x1="202.6" y1="147.9" x2="175.6" y2="74.3"/>
	<path class="st2" d="M133.8,268.9c8.1-0.8,16.2-1.6,24.3-2.4"/>
	<line class="st2" x1="64.8" y1="189.9" x2="133.8" y2="268.9"/>
	<line class="st2" x1="59.8" y1="146.2" x2="48" y2="164.1"/>
	<line class="st2" x1="175.6" y1="74.3" x2="175.6" y2="74.3"/>
	<path class="st2" d="M175.6,74.3c-6.3-2.2-12.6-4.4-19-6.6"/>
	<line class="st2" x1="156.5" y1="67.7" x2="156.6" y2="67.7"/>
	<path class="st2" d="M116.5,84.2c13.4-5.5,26.7-11,40.1-16.5"/>
	<line class="st2" x1="59.8" y1="146.2" x2="116.5" y2="84.2"/>
	<path class="st2" d="M105.9,187.6c-15.4-13.8-30.7-27.6-46.1-41.4"/>
</g>
</svg>
