<?xml version="1.0" encoding="utf-8"?>
<!-- Generator: Adobe Illustrator 21.1.0, SVG Export Plug-In . SVG Version: 6.00 Build 0)  -->
<svg version="1.1" xmlns="http://www.w3.org/2000/svg" xmlns:xlink="http://www.w3.org/1999/xlink" x="0px" y="0px"
	 viewBox="0 0 300 300" style="enable-background:new 0 0 300 300;" xml:space="preserve">
<style type="text/css">
	.st0{display:none;}
	.st1{display:inline;fill:none;stroke:#000000;stroke-linecap:round;stroke-linejoin:round;}
	.st2{fill:none;stroke:#000000;stroke-linecap:round;stroke-linejoin:round;}
</style>
<g id="_x31_" class="st0">
	<rect class="st1" width="300" height="300"/>
</g>
<g id="_x34_::150_-_Copy">
	<line class="st2" x1="170.8" y1="243.9" x2="190.4" y2="213.3"/>
	<line class="st2" x1="115.9" y1="268.9" x2="170.8" y2="243.9"/>
	<line class="st2" x1="190.4" y1="213.3" x2="170.6" y2="193.5"/>
	<path class="st2" d="M211.6,120.6c-7.1,30.9-14.1,61.8-21.2,92.8"/>
	<line class="st2" x1="207.4" y1="116.1" x2="207.4" y2="116.1"/>
	<line class="st2" x1="94.3" y1="80.5" x2="45.5" y2="107.6"/>
	<line class="st2" x1="45.5" y1="107.6" x2="52.6" y2="137.6"/>
	<line class="st2" x1="153.1" y1="55.1" x2="94.3" y2="80.5"/>
	<line class="st2" x1="46.7" y1="108.2" x2="45.5" y2="107.6"/>
	<line class="st2" x1="174.5" y1="77.6" x2="187.2" y2="94.5"/>
	<line class="st2" x1="211.6" y1="120.6" x2="187.2" y2="94.5"/>
	<line class="st2" x1="211.6" y1="120.6" x2="208" y2="114.9"/>
	<line class="st2" x1="174.5" y1="77.6" x2="162" y2="55.7"/>
	<line class="st2" x1="131.4" y1="74.6" x2="153.1" y2="55.1"/>
	<line class="st2" x1="162" y1="55.7" x2="208" y2="114.9"/>
	<line class="st2" x1="162" y1="55.7" x2="153.1" y2="55.1"/>
	<line class="st2" x1="174.3" y1="77.6" x2="162" y2="55.7"/>
	<line class="st2" x1="69.9" y1="177.3" x2="87.7" y2="265.9"/>
	<line class="st2" x1="170.6" y1="193.5" x2="115.9" y2="268.9"/>
	<line class="st2" x1="69.9" y1="177.3" x2="170.6" y2="186.3"/>
	<line class="st2" x1="115.9" y1="268.9" x2="87.7" y2="265.9"/>
	<line class="st2" x1="170.6" y1="193.5" x2="170.6" y2="186.3"/>
	<line class="st2" x1="187.1" y1="94.7" x2="211.6" y2="120.6"/>
	<line class="st2" x1="170.6" y1="186.3" x2="187.1" y2="94.7"/>
	<path class="st2" d="M77.5,243.2c3.4,7.6,6.8,15.2,10.2,22.8"/>
	<line class="st2" x1="52.6" y1="137.6" x2="77.5" y2="243.2"/>
	<line class="st2" x1="52.5" y1="111" x2="46.7" y2="108.2"/>
	<line class="st2" x1="187.1" y1="94.7" x2="187.1" y2="94.6"/>
	<path class="st2" d="M187.1,94.6c-4.2-5.7-8.4-11.4-12.7-17"/>
	<line class="st2" x1="174.3" y1="77.6" x2="174.4" y2="77.6"/>
	<path class="st2" d="M131.4,74.6c14.3,1,28.6,2,42.9,3"/>
	<line class="st2" x1="52.5" y1="111" x2="131.4" y2="74.6"/>
	<path class="st2" d="M69.9,177.3c-5.8-22.1-11.6-44.2-17.4-66.2"/>
</g>
</svg>
