<?xml version="1.0" encoding="utf-8"?>
<!-- Generator: Adobe Illustrator 21.1.0, SVG Export Plug-In . SVG Version: 6.00 Build 0)  -->
<svg version="1.1" xmlns="http://www.w3.org/2000/svg" xmlns:xlink="http://www.w3.org/1999/xlink" x="0px" y="0px"
	 viewBox="0 0 300 300" style="enable-background:new 0 0 300 300;" xml:space="preserve">
<style type="text/css">
	.st0{display:none;}
	.st1{display:inline;fill:none;stroke:#000000;stroke-linecap:round;stroke-linejoin:round;}
	.st2{fill:none;stroke:#000000;stroke-linecap:round;stroke-linejoin:round;}
</style>
<g id="_x31_" class="st0">
	<rect class="st1" width="300" height="300"/>
</g>
<g id="_x34_::180_-_Copy">
	<line class="st2" x1="137.1" y1="255.9" x2="161.9" y2="243.6"/>
	<line class="st2" x1="67.2" y1="268.9" x2="137.1" y2="255.9"/>
	<line class="st2" x1="161.9" y1="243.6" x2="134.9" y2="238.5"/>
	<path class="st2" d="M228.8,159.7c-22.3,28-44.6,56-66.9,84"/>
	<line class="st2" x1="218.7" y1="157.3" x2="218.7" y2="157.3"/>
	<line class="st2" x1="146.1" y1="63.3" x2="82.3" y2="78.8"/>
	<line class="st2" x1="205.7" y1="70.8" x2="146.1" y2="63.3"/>
	<line class="st2" x1="80.6" y1="82.9" x2="82.3" y2="78.8"/>
	<line class="st2" x1="192.7" y1="128.6" x2="195.3" y2="151.7"/>
	<line class="st2" x1="228.8" y1="159.7" x2="195.3" y2="151.7"/>
	<line class="st2" x1="228.8" y1="159.7" x2="231.6" y2="148.6"/>
	<line class="st2" x1="192.7" y1="128.6" x2="213.2" y2="75.7"/>
	<line class="st2" x1="157" y1="104.4" x2="205.7" y2="70.8"/>
	<line class="st2" x1="213.2" y1="75.7" x2="231.6" y2="148.6"/>
	<line class="st2" x1="213.2" y1="75.7" x2="205.7" y2="70.8"/>
	<line class="st2" x1="192.6" y1="128.5" x2="213.2" y2="75.7"/>
	<line class="st2" x1="57.5" y1="175.6" x2="45.5" y2="252.8"/>
	<line class="st2" x1="134.9" y1="238.5" x2="67.2" y2="268.9"/>
	<line class="st2" x1="57.5" y1="175.6" x2="137.3" y2="232.9"/>
	<line class="st2" x1="67.2" y1="268.9" x2="45.5" y2="252.8"/>
	<line class="st2" x1="134.9" y1="238.5" x2="137.3" y2="232.9"/>
	<line class="st2" x1="195.2" y1="151.9" x2="228.8" y2="159.7"/>
	<line class="st2" x1="137.3" y1="232.9" x2="195.2" y2="151.9"/>
	<line class="st2" x1="72.7" y1="102.6" x2="80.6" y2="82.9"/>
	<line class="st2" x1="195.2" y1="151.9" x2="195.3" y2="151.8"/>
	<path class="st2" d="M195.3,151.8c-0.8-7.8-1.7-15.5-2.6-23.3"/>
	<line class="st2" x1="192.6" y1="128.5" x2="192.6" y2="128.5"/>
	<path class="st2" d="M157,104.4c11.9,8,23.7,16.1,35.6,24.1"/>
	<line class="st2" x1="72.7" y1="102.6" x2="157" y2="104.4"/>
	<path class="st2" d="M57.5,175.6c5.1-24.3,10.1-48.7,15.2-73"/>
</g>
</svg>
