<?xml version="1.0" encoding="utf-8"?>
<!-- Generator: Adobe Illustrator 21.1.0, SVG Export Plug-In . SVG Version: 6.00 Build 0)  -->
<svg version="1.1" xmlns="http://www.w3.org/2000/svg" xmlns:xlink="http://www.w3.org/1999/xlink" x="0px" y="0px"
	 viewBox="0 0 300 300" style="enable-background:new 0 0 300 300;" xml:space="preserve">
<style type="text/css">
	.st0{display:none;}
	.st1{display:inline;fill:none;stroke:#000000;stroke-linecap:round;stroke-linejoin:round;}
	.st2{fill:none;stroke:#000000;stroke-linecap:round;stroke-linejoin:round;}
</style>
<g id="_x31_" class="st0">
	<rect class="st1" width="301" height="301"/>
</g>
<g id="_x34_::210_-_Copy">
	<line class="st2" x1="153.7" y1="265.8" x2="115" y2="269.8"/>
	<path class="st2" d="M252.2,216.3c-32.8,16.5-65.7,33-98.5,49.5"/>
	<line class="st2" x1="209.5" y1="201.3" x2="209.6" y2="201.3"/>
	<line class="st2" x1="223.4" y1="83.5" x2="151" y2="79"/>
	<line class="st2" x1="269" y1="124.8" x2="223.4" y2="83.5"/>
	<line class="st2" x1="145.3" y1="85.2" x2="151" y2="79"/>
	<line class="st2" x1="210.8" y1="197.9" x2="202.7" y2="221"/>
	<line class="st2" x1="252.2" y1="216.3" x2="202.7" y2="221"/>
	<line class="st2" x1="252.2" y1="216.3" x2="262.8" y2="203.7"/>
	<line class="st2" x1="210.8" y1="197.9" x2="273.4" y2="133.3"/>
	<line class="st2" x1="190.7" y1="157.1" x2="269" y2="124.8"/>
	<line class="st2" x1="273.4" y1="133.3" x2="262.8" y2="203.7"/>
	<line class="st2" x1="273.4" y1="133.3" x2="269" y2="124.8"/>
	<line class="st2" x1="210.7" y1="197.7" x2="273.4" y2="133.3"/>
	<line class="st2" x1="75.2" y1="175.9" x2="45.7" y2="227"/>
	<line class="st2" x1="115" y1="269.8" x2="57.1" y2="251.8"/>
	<line class="st2" x1="75.2" y1="175.9" x2="118.3" y2="267.1"/>
	<line class="st2" x1="57.1" y1="251.8" x2="45.7" y2="227"/>
	<line class="st2" x1="115" y1="269.8" x2="118.3" y2="267.1"/>
	<line class="st2" x1="202.5" y1="221.1" x2="252.2" y2="216.3"/>
	<line class="st2" x1="118.3" y1="267.1" x2="202.5" y2="221.1"/>
	<line class="st2" x1="118.7" y1="114" x2="145.3" y2="85.2"/>
	<line class="st2" x1="202.5" y1="221.1" x2="202.6" y2="221"/>
	<path class="st2" d="M202.6,221c2.8-7.7,5.5-15.4,8.2-23.2"/>
	<line class="st2" x1="210.7" y1="197.7" x2="210.8" y2="197.8"/>
	<path class="st2" d="M190.7,157.1c6.7,13.5,13.4,27.1,20,40.6"/>
	<line class="st2" x1="118.7" y1="114" x2="190.7" y2="157.1"/>
	<path class="st2" d="M75.2,175.9c14.5-20.6,29-41.2,43.5-61.9"/>
</g>
</svg>
