<?xml version="1.0" encoding="utf-8"?>
<!-- Generator: Adobe Illustrator 21.1.0, SVG Export Plug-In . SVG Version: 6.00 Build 0)  -->
<svg version="1.1" xmlns="http://www.w3.org/2000/svg" xmlns:xlink="http://www.w3.org/1999/xlink" x="0px" y="0px"
	 viewBox="0 0 300 300" style="enable-background:new 0 0 300 300;" xml:space="preserve">
<style type="text/css">
	.st0{display:none;}
	.st1{display:inline;fill:none;stroke:#000000;stroke-linecap:round;stroke-linejoin:round;}
	.st2{fill:none;stroke:#000000;stroke-linecap:round;stroke-linejoin:round;}
</style>
<g id="_x31_" class="st0">
	<rect class="st1" width="300" height="300"/>
</g>
<g id="_x34_::240_-_Copy">
	<line class="st2" x1="171.7" y1="260.8" x2="171.6" y2="260.8"/>
	<line class="st2" x1="226.4" y1="229.5" x2="226.5" y2="229.6"/>
	<line class="st2" x1="261.9" y1="127.6" x2="192" y2="98.6"/>
	<line class="st2" x1="192" y1="98.6" x2="169" y2="111.6"/>
	<line class="st2" x1="279.2" y1="193.3" x2="261.9" y2="127.6"/>
	<line class="st2" x1="182.2" y1="104.4" x2="192" y2="98.6"/>
	<line class="st2" x1="179.5" y1="253" x2="163.6" y2="268.9"/>
	<line class="st2" x1="230.3" y1="261.4" x2="163.6" y2="268.9"/>
	<line class="st2" x1="230.3" y1="261.4" x2="247.4" y2="252.1"/>
	<line class="st2" x1="179.5" y1="253" x2="279.3" y2="203.3"/>
	<line class="st2" x1="179.3" y1="206.8" x2="279.2" y2="193.3"/>
	<line class="st2" x1="279.3" y1="203.3" x2="247.4" y2="252.1"/>
	<line class="st2" x1="279.3" y1="203.3" x2="279.2" y2="193.3"/>
	<line class="st2" x1="179.5" y1="252.8" x2="279.3" y2="203.3"/>
	<line class="st2" x1="77.2" y1="165.6" x2="45.5" y2="182.6"/>
	<line class="st2" x1="75.1" y1="265.9" x2="45.7" y2="209.7"/>
	<line class="st2" x1="77.2" y1="165.6" x2="77.8" y2="266.4"/>
	<line class="st2" x1="45.7" y1="209.7" x2="45.5" y2="182.6"/>
	<line class="st2" x1="75.1" y1="265.9" x2="77.8" y2="266.4"/>
	<line class="st2" x1="163.5" y1="268.9" x2="163.6" y2="268.9"/>
	<line class="st2" x1="77.8" y1="266.4" x2="163.4" y2="268.9"/>
	<line class="st2" x1="95.4" y1="153.1" x2="45.5" y2="182.6"/>
	<line class="st2" x1="169" y1="111.6" x2="95.4" y2="153.1"/>
	<line class="st2" x1="136.8" y1="131.5" x2="182.2" y2="104.4"/>
	<line class="st2" x1="163.4" y1="268.9" x2="163.5" y2="268.9"/>
	<path class="st2" d="M163.5,268.9c2.7-2.7,5.5-5.4,8.2-8.1"/>
	<line class="st2" x1="179.5" y1="252.8" x2="179.5" y2="252.9"/>
	<path class="st2" d="M179.3,206.8c0.1,15.3,0.1,30.7,0.2,46"/>
	<line class="st2" x1="136.8" y1="131.5" x2="179.3" y2="206.8"/>
	<path class="st2" d="M77.2,165.6c19.9-11.4,39.8-22.7,59.7-34.1"/>
</g>
</svg>
