<?xml version="1.0" encoding="utf-8"?>
<!-- Generator: Adobe Illustrator 21.1.0, SVG Export Plug-In . SVG Version: 6.00 Build 0)  -->
<svg version="1.1" xmlns="http://www.w3.org/2000/svg" xmlns:xlink="http://www.w3.org/1999/xlink" x="0px" y="0px"
	 viewBox="0 0 300 300" style="enable-background:new 0 0 300 300;" xml:space="preserve">
<style type="text/css">
	.st0{display:none;}
	.st1{display:inline;fill:none;stroke:#000000;stroke-linecap:round;stroke-linejoin:round;}
	.st2{fill:none;stroke:#000000;stroke-linecap:round;stroke-linejoin:round;}
</style>
<g id="_x31_" class="st0">
	<rect class="st1" width="300" height="300"/>
</g>
<g id="_x34_::270_-_Copy">
	<line class="st2" x1="175.4" y1="259.1" x2="175.3" y2="259"/>
	<line class="st2" x1="211.7" y1="255.1" x2="211.7" y2="255.1"/>
	<line class="st2" x1="271.7" y1="169.8" x2="215.1" y2="118"/>
	<line class="st2" x1="215.1" y1="118" x2="192.7" y2="115.1"/>
	<line class="st2" x1="254.6" y1="242.2" x2="271.7" y2="169.8"/>
	<line class="st2" x1="202" y1="121.2" x2="215.1" y2="118"/>
	<line class="st2" x1="130.2" y1="264" x2="111.9" y2="268.8"/>
	<line class="st2" x1="192.1" y1="268.9" x2="111.9" y2="268.8"/>
	<line class="st2" x1="192.1" y1="268.9" x2="212.7" y2="266.5"/>
	<line class="st2" x1="130.2" y1="264" x2="250.5" y2="250.9"/>
	<line class="st2" x1="147.4" y1="224.7" x2="254.6" y2="242.2"/>
	<line class="st2" x1="250.5" y1="250.9" x2="212.7" y2="266.5"/>
	<line class="st2" x1="250.5" y1="250.9" x2="254.6" y2="242.2"/>
	<line class="st2" x1="130.2" y1="263.8" x2="250.5" y2="250.9"/>
	<line class="st2" x1="81.8" y1="133.3" x2="62.4" y2="117"/>
	<line class="st2" x1="45.5" y1="217.6" x2="52.9" y2="140.9"/>
	<line class="st2" x1="81.8" y1="133.3" x2="46.5" y2="220.5"/>
	<line class="st2" x1="52.9" y1="140.9" x2="62.4" y2="117"/>
	<line class="st2" x1="45.5" y1="217.6" x2="46.5" y2="220.5"/>
	<line class="st2" x1="112.1" y1="268.6" x2="112.3" y2="268.6"/>
	<line class="st2" x1="46.5" y1="220.5" x2="111.8" y2="268.6"/>
	<path class="st2" d="M122.4,106.1c-20,3.6-40,7.3-59.9,10.9"/>
	<line class="st2" x1="192.7" y1="115.1" x2="122.4" y2="106.1"/>
	<line class="st2" x1="142.1" y1="135.5" x2="202" y2="121.2"/>
	<line class="st2" x1="111.8" y1="268.6" x2="111.8" y2="268.7"/>
	<path class="st2" d="M111.8,268.7c6.1-1.5,12.3-3.1,18.4-4.8"/>
	<line class="st2" x1="130.2" y1="263.8" x2="130.2" y2="263.9"/>
	<path class="st2" d="M147.4,224.7c-5.7,13.1-11.4,26.1-17.1,39.2"/>
	<line class="st2" x1="142.1" y1="135.5" x2="147.4" y2="224.7"/>
	<path class="st2" d="M81.8,133.3c20.1,0.7,40.2,1.5,60.3,2.2"/>
</g>
</svg>
