<?xml version="1.0" encoding="utf-8"?>
<!-- Generator: Adobe Illustrator 21.1.0, SVG Export Plug-In . SVG Version: 6.00 Build 0)  -->
<svg version="1.1" xmlns="http://www.w3.org/2000/svg" xmlns:xlink="http://www.w3.org/1999/xlink" x="0px" y="0px"
	 viewBox="0 0 300 300" style="enable-background:new 0 0 300 300;" xml:space="preserve">
<style type="text/css">
	.st0{display:none;}
	.st1{display:inline;fill:none;stroke:#000000;stroke-linecap:round;stroke-linejoin:round;}
	.st2{fill:none;stroke:#000000;stroke-linecap:round;stroke-linejoin:round;}
</style>
<g id="_x31_" class="st0">
	<rect class="st1" width="300" height="300"/>
</g>
<g id="_x34_::300_-_Copy">
	<line class="st2" x1="260.7" y1="207.4" x2="225.9" y2="142.6"/>
	<line class="st2" x1="225.9" y1="142.6" x2="211.7" y2="124.3"/>
	<line class="st2" x1="214.2" y1="264.1" x2="260.7" y2="207.4"/>
	<line class="st2" x1="211.5" y1="141" x2="225.9" y2="142.6"/>
	<line class="st2" x1="91.1" y1="236.4" x2="76.2" y2="229.6"/>
	<line class="st2" x1="76.5" y1="229.6" x2="76.2" y2="229.6"/>
	<line class="st2" x1="91.1" y1="236.4" x2="207.7" y2="268.9"/>
	<line class="st2" x1="117.7" y1="213.8" x2="214.2" y2="264.1"/>
	<line class="st2" x1="207.7" y1="268.9" x2="214.2" y2="264.1"/>
	<line class="st2" x1="91.2" y1="236.3" x2="207.7" y2="268.9"/>
	<line class="st2" x1="102.4" y1="96.2" x2="106.9" y2="54.2"/>
	<line class="st2" x1="46.9" y1="146.4" x2="91" y2="70"/>
	<line class="st2" x1="102.4" y1="96.2" x2="45.5" y2="150.8"/>
	<line class="st2" x1="91" y1="70" x2="106.9" y2="54.2"/>
	<line class="st2" x1="46.9" y1="146.4" x2="45.5" y2="150.8"/>
	<line class="st2" x1="45.5" y1="150.8" x2="76.1" y2="229.4"/>
	<path class="st2" d="M167.2,67c-20.1-4.2-40.2-8.5-60.3-12.7"/>
	<line class="st2" x1="211.7" y1="124.3" x2="167.2" y2="67"/>
	<line class="st2" x1="146.7" y1="134.3" x2="211.5" y2="141"/>
	<line class="st2" x1="76.1" y1="229.4" x2="76.2" y2="229.5"/>
	<path class="st2" d="M76.2,229.5c5,2.4,10,4.6,15,6.9"/>
	<line class="st2" x1="91.2" y1="236.3" x2="91.1" y2="236.3"/>
	<path class="st2" d="M117.7,213.8c-8.8,7.5-17.6,15-26.5,22.5"/>
	<line class="st2" x1="146.7" y1="134.3" x2="117.7" y2="213.8"/>
	<path class="st2" d="M102.4,96.2c14.8,12.7,29.6,25.4,44.3,38.1"/>
</g>
</svg>
