<?xml version="1.0" encoding="utf-8"?>
<!-- Generator: Adobe Illustrator 21.1.0, SVG Export Plug-In . SVG Version: 6.00 Build 0)  -->
<svg version="1.1" xmlns="http://www.w3.org/2000/svg" xmlns:xlink="http://www.w3.org/1999/xlink" x="0px" y="0px"
	 viewBox="0 0 300 300" style="enable-background:new 0 0 300 300;" xml:space="preserve">
<style type="text/css">
	.st0{display:none;}
	.st1{display:inline;fill:none;stroke:#000000;stroke-linecap:round;stroke-linejoin:round;}
	.st2{fill:none;stroke:#000000;stroke-linecap:round;stroke-linejoin:round;}
</style>
<g id="_x31_" class="st0">
	<rect class="st1" width="300" height="300"/>
</g>
<g id="_x34_::330_-_Copy">
	<line class="st2" x1="216.9" y1="137.9" x2="218.1" y2="149.9"/>
	<line class="st2" x1="216.9" y1="137.9" x2="200.4" y2="61.5"/>
	<line class="st2" x1="218.1" y1="149.9" x2="218.9" y2="159"/>
	<line class="st2" x1="213.9" y1="244.3" x2="218.9" y2="159"/>
	<line class="st2" x1="213.9" y1="244.3" x2="202.1" y2="180.6"/>
	<line class="st2" x1="202.1" y1="180.6" x2="201.7" y2="152.1"/>
	<line class="st2" x1="152.8" y1="268.9" x2="213.9" y2="244.3"/>
	<line class="st2" x1="189" y1="173.8" x2="202.1" y2="180.6"/>
	<line class="st2" x1="53.1" y1="196" x2="45.5" y2="180.4"/>
	<line class="st2" x1="45.6" y1="180.4" x2="45.5" y2="180.4"/>
	<line class="st2" x1="53.1" y1="196" x2="146.4" y2="268.9"/>
	<line class="st2" x1="79.4" y1="194.1" x2="152.8" y2="268.9"/>
	<line class="st2" x1="146.4" y1="268.9" x2="152.8" y2="268.9"/>
	<line class="st2" x1="53.2" y1="196" x2="146.4" y2="268.9"/>
	<line class="st2" x1="114" y1="79.1" x2="149.3" y2="24.6"/>
	<line class="st2" x1="57.4" y1="86.3" x2="131.4" y2="28.9"/>
	<line class="st2" x1="114" y1="79.1" x2="53.6" y2="90.8"/>
	<line class="st2" x1="131.4" y1="28.9" x2="149.3" y2="24.6"/>
	<line class="st2" x1="57.4" y1="86.3" x2="53.6" y2="90.8"/>
	<line class="st2" x1="53.6" y1="90.8" x2="45.5" y2="180.2"/>
	<path class="st2" d="M200.4,61.5c-17-12.3-34.1-24.7-51.1-37"/>
	<line class="st2" x1="201.7" y1="152.1" x2="200.4" y2="61.5"/>
	<line class="st2" x1="130.1" y1="143.4" x2="189" y2="173.8"/>
	<line class="st2" x1="45.5" y1="180.2" x2="45.5" y2="180.3"/>
	<path class="st2" d="M45.5,180.3c2.5,5.3,5,10.5,7.6,15.7"/>
	<line class="st2" x1="53.2" y1="196" x2="53.1" y2="196"/>
	<path class="st2" d="M79.4,194.1c-8.8,0.6-17.5,1.3-26.3,1.9"/>
	<line class="st2" x1="130.1" y1="143.4" x2="79.4" y2="194.1"/>
	<path class="st2" d="M114,79.1c5.4,21.4,10.7,42.8,16.1,64.3"/>
</g>
</svg>
