<?xml version="1.0" encoding="utf-8"?>
<!-- Generator: Adobe Illustrator 21.1.0, SVG Export Plug-In . SVG Version: 6.00 Build 0)  -->
<svg version="1.1" xmlns="http://www.w3.org/2000/svg" xmlns:xlink="http://www.w3.org/1999/xlink" x="0px" y="0px"
	 viewBox="0 0 300 300" style="enable-background:new 0 0 300 300;" xml:space="preserve">
<style type="text/css">
	.st0{display:none;}
	.st1{display:inline;fill:none;stroke:#000000;stroke-linecap:round;stroke-linejoin:round;}
	.st2{fill:none;stroke:#000000;stroke-linecap:round;stroke-linejoin:round;}
</style>
<g id="_x31_" class="st0">
	<rect y="0.3" class="st1" width="299.7" height="299.7"/>
</g>
<g id="_x31_::000">
	<line class="st2" x1="182.8" y1="167.1" x2="148" y2="142.2"/>
	<line class="st2" x1="131" y1="219.9" x2="182.8" y2="167.1"/>
	<line class="st2" x1="148" y1="142.2" x2="64.2" y2="153.4"/>
	<path class="st2" d="M144.4,117.5c1.2,8.2,2.4,16.5,3.6,24.7"/>
	<line class="st2" x1="231.1" y1="182.9" x2="182.8" y2="167.1"/>
	<line class="st2" x1="231.1" y1="182.9" x2="229.8" y2="179.4"/>
	<path class="st2" d="M228.9,177c-24.3-18.4-48.5-36.8-72.8-55.3"/>
	<line class="st2" x1="231.1" y1="182.9" x2="172.2" y2="261.2"/>
	<line class="st2" x1="229.8" y1="179.4" x2="228.9" y2="177"/>
	<line class="st2" x1="115.2" y1="269" x2="126.8" y2="267.4"/>
	<line class="st2" x1="105.6" y1="266.6" x2="115.2" y2="269"/>
	<line class="st2" x1="144.4" y1="117.5" x2="156.1" y2="121.7"/>
	<line class="st2" x1="67.9" y1="247.6" x2="133" y2="248.3"/>
	<line class="st2" x1="64.2" y1="153.4" x2="131" y2="219.9"/>
	<line class="st2" x1="67.9" y1="247.6" x2="59.1" y2="152.6"/>
	<line class="st2" x1="131" y1="219.9" x2="133" y2="248.3"/>
	<line class="st2" x1="64.2" y1="153.4" x2="59.1" y2="152.6"/>
	<line class="st2" x1="46.2" y1="131.8" x2="144.4" y2="117.5"/>
	<line class="st2" x1="59.1" y1="152.6" x2="46.2" y2="131.8"/>
	<path class="st2" d="M172.2,261.2c-13.1-4.3-26.2-8.6-39.2-12.9"/>
	<line class="st2" x1="126.8" y1="267.4" x2="172.2" y2="261.2"/>
	<line class="st2" x1="61.1" y1="255.6" x2="105.6" y2="266.6"/>
	<path class="st2" d="M46.2,131.8c-0.3,3.6-0.5,7.1-0.7,10.7"/>
	<line class="st2" x1="45.5" y1="142.5" x2="45.5" y2="142.4"/>
	<path class="st2" d="M49.2,181c-1.2-12.8-2.5-25.6-3.7-38.4"/>
	<line class="st2" x1="61.1" y1="255.6" x2="49.2" y2="181"/>
	<path class="st2" d="M67.9,247.6c-2.3,2.7-4.6,5.3-6.8,8"/>
</g>
</svg>
