<?xml version="1.0" encoding="utf-8"?>
<!-- Generator: Adobe Illustrator 21.1.0, SVG Export Plug-In . SVG Version: 6.00 Build 0)  -->
<svg version="1.1" xmlns="http://www.w3.org/2000/svg" xmlns:xlink="http://www.w3.org/1999/xlink" x="0px" y="0px"
	 viewBox="0 0 300 300" style="enable-background:new 0 0 300 300;" xml:space="preserve">
<style type="text/css">
	.st0{display:none;}
	.st1{display:inline;fill:none;stroke:#000000;stroke-linecap:round;stroke-linejoin:round;}
	.st2{fill:none;stroke:#000000;stroke-linecap:round;stroke-linejoin:round;}
</style>
<g id="_x31_" class="st0">
	<rect class="st1" width="300.3" height="300.3"/>
</g>
<g id="_x31_::030">
	<line class="st2" x1="180.9" y1="180.1" x2="163" y2="146.9"/>
	<line class="st2" x1="104.1" y1="193.4" x2="180.9" y2="180.1"/>
	<line class="st2" x1="163" y1="146.9" x2="82.5" y2="117.6"/>
	<path class="st2" d="M183.9,145.2c-7,0.6-13.9,1.1-20.9,1.7"/>
	<line class="st2" x1="226.1" y1="228.7" x2="180.9" y2="180.1"/>
	<line class="st2" x1="226.1" y1="228.7" x2="228.1" y2="227.6"/>
	<path class="st2" d="M229.5,226.8c-11.8-23.4-23.5-46.9-35.3-70.3"/>
	<line class="st2" x1="226.1" y1="228.7" x2="129.6" y2="261.5"/>
	<line class="st2" x1="228.1" y1="227.6" x2="229.5" y2="226.8"/>
	<line class="st2" x1="91.4" y1="269.2" x2="99.2" y2="267.7"/>
	<line class="st2" x1="83.2" y1="261.4" x2="91.4" y2="269.2"/>
	<line class="st2" x1="183.9" y1="145.2" x2="194.2" y2="156.6"/>
	<line class="st2" x1="46.5" y1="207.1" x2="93.8" y2="221.4"/>
	<line class="st2" x1="82.5" y1="117.6" x2="104.1" y2="193.4"/>
	<line class="st2" x1="46.5" y1="207.1" x2="79.2" y2="115.8"/>
	<line class="st2" x1="104.1" y1="193.4" x2="93.8" y2="221.4"/>
	<line class="st2" x1="82.5" y1="117.6" x2="79.2" y2="115.8"/>
	<line class="st2" x1="88.8" y1="111.1" x2="183.9" y2="145.2"/>
	<line class="st2" x1="79.2" y1="115.8" x2="88.8" y2="111.1"/>
	<path class="st2" d="M129.6,261.5c-11.9-13.4-23.9-26.8-35.8-40.1"/>
	<line class="st2" x1="99.2" y1="267.7" x2="129.6" y2="261.5"/>
	<line class="st2" x1="45.6" y1="225.4" x2="83.2" y2="261.4"/>
	<path class="st2" d="M46.5,207.1c-0.3,6.1-0.6,12.2-0.9,18.3"/>
</g>
</svg>
