<?xml version="1.0" encoding="utf-8"?>
<!-- Generator: Adobe Illustrator 21.1.0, SVG Export Plug-In . SVG Version: 6.00 Build 0)  -->
<svg version="1.1" xmlns="http://www.w3.org/2000/svg" xmlns:xlink="http://www.w3.org/1999/xlink" x="0px" y="0px"
	 viewBox="0 0 300 300" style="enable-background:new 0 0 300 300;" xml:space="preserve">
<style type="text/css">
	.st0{display:none;}
	.st1{display:inline;fill:none;stroke:#000000;stroke-linecap:round;stroke-linejoin:round;}
	.st2{fill:none;stroke:#000000;stroke-linecap:round;stroke-linejoin:round;}
</style>
<g id="_x31_" class="st0">
	<rect class="st1" width="300" height="300"/>
</g>
<g id="_x31_::060">
	<line class="st2" x1="172.2" y1="185.4" x2="174.4" y2="153.8"/>
	<line class="st2" x1="91.8" y1="154.8" x2="172.2" y2="185.4"/>
	<line class="st2" x1="174.4" y1="153.8" x2="116" y2="94.3"/>
	<path class="st2" d="M207.2,182.3c-10.9-9.5-21.9-19.1-32.8-28.6"/>
	<line class="st2" x1="198.1" y1="260.5" x2="172.2" y2="185.4"/>
	<line class="st2" x1="198.1" y1="260.5" x2="202.1" y2="263.1"/>
	<path class="st2" d="M205,265c2.6-22,5.3-43.9,7.9-65.9"/>
	<line class="st2" x1="198.1" y1="260.5" x2="88.2" y2="236"/>
	<line class="st2" x1="202.1" y1="263.1" x2="205" y2="265"/>
	<line class="st2" x1="126.7" y1="268.9" x2="205" y2="265"/>
	<line class="st2" x1="126.7" y1="268.9" x2="68" y2="253.9"/>
	<line class="st2" x1="68" y1="253.9" x2="72.1" y2="250.3"/>
	<line class="st2" x1="63.9" y1="242.2" x2="68" y2="253.9"/>
	<line class="st2" x1="207.2" y1="182.3" x2="212.9" y2="199.1"/>
	<line class="st2" x1="46.5" y1="160.3" x2="70.4" y2="176"/>
	<line class="st2" x1="116" y1="94.3" x2="91.8" y2="154.8"/>
	<line class="st2" x1="46.5" y1="160.3" x2="114.8" y2="92.7"/>
	<line class="st2" x1="91.8" y1="154.8" x2="70.4" y2="176"/>
	<line class="st2" x1="116" y1="94.3" x2="114.8" y2="92.7"/>
	<line class="st2" x1="136.3" y1="110.5" x2="207.2" y2="182.3"/>
	<line class="st2" x1="114.8" y1="92.7" x2="136.3" y2="110.5"/>
	<path class="st2" d="M88.2,236c-6-20-11.9-40-17.9-59.9"/>
	<line class="st2" x1="72.1" y1="250.3" x2="88.2" y2="236"/>
	<line class="st2" x1="45.5" y1="189.5" x2="63.9" y2="242.2"/>
	<path class="st2" d="M46.5,160.3c-0.3,9.7-0.7,19.4-1,29.2"/>
</g>
</svg>
