<?xml version="1.0" encoding="utf-8"?>
<!-- Generator: Adobe Illustrator 21.1.0, SVG Export Plug-In . SVG Version: 6.00 Build 0)  -->
<svg version="1.1" xmlns="http://www.w3.org/2000/svg" xmlns:xlink="http://www.w3.org/1999/xlink" x="0px" y="0px"
	 viewBox="0 0 300 300" style="enable-background:new 0 0 300 300;" xml:space="preserve">
<style type="text/css">
	.st0{display:none;}
	.st1{display:inline;fill:none;stroke:#000000;stroke-linecap:round;stroke-linejoin:round;}
	.st2{fill:none;stroke:#000000;stroke-linecap:round;stroke-linejoin:round;}
</style>
<g id="_x31_" class="st0">
	<rect class="st1" width="300" height="300"/>
</g>
<g id="_x31_::090">
	<line class="st2" x1="153.7" y1="168.6" x2="174.6" y2="148"/>
	<line class="st2" x1="91.9" y1="101.1" x2="153.7" y2="168.6"/>
	<line class="st2" x1="174.6" y1="148" x2="151" y2="74.4"/>
	<path class="st2" d="M204.3,208.5c-9.9-20.2-19.8-40.4-29.7-60.5"/>
	<line class="st2" x1="146.8" y1="256.8" x2="153.7" y2="168.6"/>
	<line class="st2" x1="146.8" y1="256.8" x2="150.9" y2="263.8"/>
	<path class="st2" d="M153.9,268.9c16.3-13.6,32.7-27.2,49-40.7"/>
	<line class="st2" x1="146.8" y1="256.8" x2="54.2" y2="177.5"/>
	<line class="st2" x1="150.9" y1="263.8" x2="153.9" y2="268.9"/>
	<line class="st2" x1="94.9" y1="260.6" x2="153.9" y2="268.9"/>
	<line class="st2" x1="94.9" y1="260.6" x2="45.5" y2="213.7"/>
	<line class="st2" x1="45.5" y1="213.7" x2="47.3" y2="206.4"/>
	<line class="st2" x1="47.3" y1="200.9" x2="45.5" y2="213.7"/>
	<line class="st2" x1="204.3" y1="208.5" x2="202.9" y2="228.2"/>
	<line class="st2" x1="61.7" y1="106.3" x2="63.6" y2="111.3"/>
	<line class="st2" x1="151" y1="74.4" x2="91.9" y2="101.1"/>
	<line class="st2" x1="61.7" y1="106.3" x2="151.4" y2="73.9"/>
	<line class="st2" x1="91.9" y1="101.1" x2="63.6" y2="111.3"/>
	<line class="st2" x1="151" y1="74.4" x2="151.4" y2="73.9"/>
	<line class="st2" x1="173.2" y1="115.2" x2="204.3" y2="208.5"/>
	<line class="st2" x1="151.4" y1="73.9" x2="173.2" y2="115.2"/>
	<line class="st2" x1="54.2" y1="177.5" x2="63.6" y2="111.3"/>
	<line class="st2" x1="47.3" y1="206.4" x2="54.2" y2="177.5"/>
	<line class="st2" x1="55" y1="144.1" x2="47.3" y2="200.9"/>
	<path class="st2" d="M61.7,106.3c-2.2,12.6-4.5,25.1-6.7,37.7"/>
</g>
</svg>
