<?xml version="1.0" encoding="utf-8"?>
<!-- Generator: Adobe Illustrator 21.1.0, SVG Export Plug-In . SVG Version: 6.00 Build 0)  -->
<svg version="1.1" xmlns="http://www.w3.org/2000/svg" xmlns:xlink="http://www.w3.org/1999/xlink" x="0px" y="0px"
	 viewBox="0 0 300 300" style="enable-background:new 0 0 300 300;" xml:space="preserve">
<style type="text/css">
	.st0{display:none;}
	.st1{display:inline;fill:none;stroke:#000000;stroke-linecap:round;stroke-linejoin:round;}
	.st2{fill:none;stroke:#000000;stroke-linecap:round;stroke-linejoin:round;}
</style>
<g id="_x31_" class="st0">
	<rect x="-0.5" class="st1" width="300.5" height="300.5"/>
</g>
<g id="_x31_::120">
	<line class="st2" x1="143.5" y1="165.8" x2="176.9" y2="163.9"/>
	<line class="st2" x1="118.6" y1="79" x2="143.5" y2="165.8"/>
	<line class="st2" x1="176.9" y1="163.9" x2="193.3" y2="95.9"/>
	<path class="st2" d="M187.5,250.6c-3.5-28.9-7.1-57.8-10.6-86.8"/>
	<line class="st2" x1="97.8" y1="247.2" x2="143.5" y2="165.8"/>
	<line class="st2" x1="97.8" y1="247.2" x2="99.7" y2="258.1"/>
	<path class="st2" d="M101.1,266c25.5,1.1,51,2.3,76.5,3.4"/>
	<line class="st2" x1="97.8" y1="247.2" x2="52.4" y2="133.8"/>
	<line class="st2" x1="99.7" y1="258.1" x2="101.1" y2="266"/>
	<line class="st2" x1="68.6" y1="258.9" x2="101.1" y2="266"/>
	<line class="st2" x1="68.6" y1="258.9" x2="45.1" y2="190.7"/>
	<line class="st2" x1="45.1" y1="190.7" x2="46.6" y2="179.1"/>
	<line class="st2" x1="187.5" y1="250.6" x2="177.6" y2="269.4"/>
	<line class="st2" x1="193.3" y1="95.9" x2="118.6" y2="79"/>
	<line class="st2" x1="118.6" y1="79" x2="89.7" y2="77.4"/>
	<line class="st2" x1="193.3" y1="95.9" x2="194.8" y2="97"/>
	<line class="st2" x1="205.7" y1="158" x2="187.5" y2="250.6"/>
	<line class="st2" x1="194.8" y1="97" x2="205.7" y2="158"/>
	<path class="st2" d="M52.4,133.8C64.8,115,77.3,96.2,89.7,77.4"/>
	<line class="st2" x1="46.6" y1="179.1" x2="52.4" y2="133.8"/>
</g>
</svg>
