<?xml version="1.0" encoding="utf-8"?>
<!-- Generator: Adobe Illustrator 21.1.0, SVG Export Plug-In . SVG Version: 6.00 Build 0)  -->
<svg version="1.1" xmlns="http://www.w3.org/2000/svg" xmlns:xlink="http://www.w3.org/1999/xlink" x="0px" y="0px"
	 viewBox="0 0 300 300" style="enable-background:new 0 0 300 300;" xml:space="preserve">
<style type="text/css">
	.st0{display:none;}
	.st1{display:inline;fill:none;stroke:#000000;stroke-linecap:round;stroke-linejoin:round;}
	.st2{fill:none;stroke:#000000;stroke-linecap:round;stroke-linejoin:round;}
</style>
<g id="_x31_" class="st0">
	<rect y="0.9" class="st1" width="300" height="300"/>
</g>
<g id="_x31_::150">
	<line class="st2" x1="131.6" y1="141.9" x2="165.9" y2="160.9"/>
	<line class="st2" x1="150.5" y1="61.9" x2="131.6" y2="141.9"/>
	<line class="st2" x1="165.9" y1="160.9" x2="216.2" y2="118.9"/>
	<path class="st2" d="M145.1,256.8c6.9-32,13.8-63.9,20.8-95.9"/>
	<line class="st2" x1="55.9" y1="194.7" x2="131.6" y2="141.9"/>
	<line class="st2" x1="55.9" y1="194.7" x2="53.6" y2="206.9"/>
	<path class="st2" d="M52,215.9c25.3,18,50.6,35.9,75.9,53.9"/>
	<line class="st2" x1="55.9" y1="194.7" x2="72.3" y2="84.7"/>
	<line class="st2" x1="53.6" y1="206.9" x2="52" y2="215.9"/>
	<line class="st2" x1="45.5" y1="224.9" x2="52" y2="215.9"/>
	<line class="st2" x1="45.5" y1="224.9" x2="56.6" y2="155.5"/>
	<line class="st2" x1="56.6" y1="155.5" x2="59.8" y2="141"/>
	<line class="st2" x1="102.8" y1="260.8" x2="45.5" y2="224.9"/>
	<line class="st2" x1="208.7" y1="192.3" x2="209" y2="192.2"/>
	<line class="st2" x1="145.1" y1="256.8" x2="209" y2="192.2"/>
	<line class="st2" x1="145.1" y1="256.8" x2="127.9" y2="269.8"/>
	<line class="st2" x1="109.8" y1="264.8" x2="127.9" y2="269.8"/>
	<line class="st2" x1="109.8" y1="264.8" x2="102.8" y2="260.8"/>
	<line class="st2" x1="216.2" y1="118.9" x2="150.5" y2="61.9"/>
	<line class="st2" x1="150.5" y1="61.9" x2="127.8" y2="51.3"/>
	<line class="st2" x1="216.2" y1="118.9" x2="217.9" y2="121.7"/>
	<line class="st2" x1="209" y1="192" x2="145.1" y2="256.8"/>
	<line class="st2" x1="217.9" y1="121.7" x2="209" y2="192"/>
	<path class="st2" d="M72.3,84.7c18.5-11.1,37-22.3,55.5-33.4"/>
	<line class="st2" x1="59.8" y1="141" x2="72.3" y2="84.7"/>
	<line class="st2" x1="209" y1="192" x2="209" y2="192.1"/>
	<path class="st2" d="M209,192.1c0,0-0.1,0-0.1,0.1"/>
</g>
</svg>
