<?xml version="1.0" encoding="utf-8"?>
<!-- Generator: Adobe Illustrator 21.1.0, SVG Export Plug-In . SVG Version: 6.00 Build 0)  -->
<svg version="1.1" xmlns="http://www.w3.org/2000/svg" xmlns:xlink="http://www.w3.org/1999/xlink" x="0px" y="0px"
	 viewBox="0 0 300 300" style="enable-background:new 0 0 300 300;" xml:space="preserve">
<style type="text/css">
	.st0{display:none;}
	.st1{display:inline;fill:none;stroke:#000000;stroke-linecap:round;stroke-linejoin:round;}
	.st2{fill:none;stroke:#000000;stroke-linecap:round;stroke-linejoin:round;}
</style>
<g id="_x31_" class="st0">
	<rect class="st1" width="300" height="300"/>
</g>
<g id="_x31_::180">
	<line class="st2" x1="147.4" y1="136.3" x2="172.5" y2="172.9"/>
	<line class="st2" x1="204.2" y1="81.4" x2="147.4" y2="136.3"/>
	<line class="st2" x1="172.5" y1="172.9" x2="243.9" y2="167.7"/>
	<path class="st2" d="M116,262.1c18.8-29.7,37.7-59.5,56.5-89.2"/>
	<line class="st2" x1="57.4" y1="152" x2="147.4" y2="136.3"/>
	<line class="st2" x1="57.4" y1="152" x2="50.6" y2="163.2"/>
	<path class="st2" d="M45.5,171.5c16.4,31.7,32.7,63.5,49.1,95.2"/>
	<line class="st2" x1="57.4" y1="152" x2="128.4" y2="73.9"/>
	<line class="st2" x1="50.6" y1="163.2" x2="45.5" y2="171.5"/>
	<line class="st2" x1="53.9" y1="206.3" x2="45.5" y2="171.5"/>
	<line class="st2" x1="86.4" y1="263" x2="53.9" y2="206.3"/>
	<line class="st2" x1="199.1" y1="245.9" x2="211.6" y2="243"/>
	<line class="st2" x1="116" y1="262.1" x2="211.6" y2="243"/>
	<line class="st2" x1="116" y1="262.1" x2="94.6" y2="266.7"/>
	<line class="st2" x1="199.1" y1="245.9" x2="90.1" y2="268.9"/>
	<line class="st2" x1="90.1" y1="268.9" x2="94.6" y2="266.7"/>
	<line class="st2" x1="90.1" y1="268.9" x2="86.4" y2="263"/>
	<line class="st2" x1="243.9" y1="167.7" x2="204.2" y2="81.4"/>
	<line class="st2" x1="204.2" y1="81.4" x2="190.8" y2="66.3"/>
	<line class="st2" x1="243.9" y1="167.7" x2="245" y2="172.2"/>
	<line class="st2" x1="211.7" y1="242.8" x2="116" y2="262.1"/>
	<line class="st2" x1="245" y1="172.2" x2="211.7" y2="242.8"/>
	<path class="st2" d="M128.4,73.9c20.8-2.5,41.6-5.1,62.4-7.6"/>
	<line class="st2" x1="211.7" y1="242.8" x2="211.6" y2="242.9"/>
	<path class="st2" d="M211.6,242.9c-0.5,0.1-1,0.2-1.5,0.4"/>
	<line class="st2" x1="198.8" y1="245.4" x2="198.8" y2="245.5"/>
</g>
</svg>
