<?xml version="1.0" encoding="utf-8"?>
<!-- Generator: Adobe Illustrator 21.1.0, SVG Export Plug-In . SVG Version: 6.00 Build 0)  -->
<svg version="1.1" xmlns="http://www.w3.org/2000/svg" xmlns:xlink="http://www.w3.org/1999/xlink" x="0px" y="0px"
	 viewBox="0 0 300 300" style="enable-background:new 0 0 300 300;" xml:space="preserve">
<style type="text/css">
	.st0{display:none;}
	.st1{display:inline;fill:none;stroke:#000000;stroke-linecap:round;stroke-linejoin:round;}
	.st2{fill:none;stroke:#000000;stroke-linecap:round;stroke-linejoin:round;}
</style>
<g id="_x31_" class="st0">
	<rect class="st1" width="300" height="300"/>
</g>
<g id="_x31_::210">
	<line class="st2" x1="148.8" y1="119" x2="156.4" y2="165.6"/>
	<line class="st2" x1="230.6" y1="102" x2="148.8" y2="119"/>
	<line class="st2" x1="156.4" y1="165.6" x2="231.1" y2="202.1"/>
	<path class="st2" d="M68.5,231.7c29.3-22,58.6-44.1,87.9-66.1"/>
	<line class="st2" x1="63.8" y1="98.4" x2="148.8" y2="119"/>
	<line class="st2" x1="63.8" y1="98.4" x2="53.3" y2="106.5"/>
	<path class="st2" d="M45.5,112.5c0.7,38.2,1.4,76.4,2.1,114.6"/>
	<line class="st2" x1="63.8" y1="98.4" x2="169.7" y2="71.3"/>
	<line class="st2" x1="53.3" y1="106.5" x2="45.5" y2="112.5"/>
	<line class="st2" x1="161.1" y1="268.9" x2="171.9" y2="268.3"/>
	<line class="st2" x1="89.7" y1="239.2" x2="171.9" y2="268.3"/>
	<line class="st2" x1="68.5" y1="231.7" x2="47.6" y2="227.1"/>
	<line class="st2" x1="161.1" y1="268.9" x2="52.3" y2="243.2"/>
	<line class="st2" x1="52.3" y1="243.2" x2="47.6" y2="227.1"/>
	<line class="st2" x1="231.1" y1="202.1" x2="230.6" y2="102"/>
	<line class="st2" x1="230.6" y1="102" x2="227.7" y2="87.4"/>
	<line class="st2" x1="231.1" y1="202.1" x2="230.6" y2="207.8"/>
	<line class="st2" x1="172" y1="268.2" x2="68.5" y2="231.7"/>
	<line class="st2" x1="230.6" y1="207.8" x2="172" y2="268.2"/>
	<path class="st2" d="M169.7,71.3c19.3,5.4,38.7,10.7,58,16.1"/>
	<line class="st2" x1="172" y1="268.2" x2="171.9" y2="268.3"/>
	<path class="st2" d="M171.9,268.3c-0.1,0-0.1,0-0.2,0"/>
	<line class="st2" x1="160.8" y1="264.2" x2="160.8" y2="264.4"/>
</g>
</svg>
