<?xml version="1.0" encoding="utf-8"?>
<!-- Generator: Adobe Illustrator 21.1.0, SVG Export Plug-In . SVG Version: 6.00 Build 0)  -->
<svg version="1.1" xmlns="http://www.w3.org/2000/svg" xmlns:xlink="http://www.w3.org/1999/xlink" x="0px" y="0px"
	 viewBox="0 0 300 300" style="enable-background:new 0 0 300 300;" xml:space="preserve">
<style type="text/css">
	.st0{display:none;}
	.st1{display:inline;fill:none;stroke:#000000;stroke-linecap:round;stroke-linejoin:round;}
	.st2{fill:none;stroke:#000000;stroke-linecap:round;stroke-linejoin:round;}
</style>
<g id="_x31_" class="st0">
	<rect class="st1" width="300" height="300"/>
</g>
<g id="_x31_::240">
	<line class="st2" x1="175.9" y1="109.5" x2="161.8" y2="153.9"/>
	<line class="st2" x1="260.5" y1="135.1" x2="175.9" y2="109.5"/>
	<line class="st2" x1="161.8" y1="153.9" x2="216.1" y2="225.1"/>
	<path class="st2" d="M60.2,184c33.9-10,67.8-20.1,101.7-30.1"/>
	<line class="st2" x1="115.8" y1="64.4" x2="175.9" y2="109.5"/>
	<line class="st2" x1="115.8" y1="64.4" x2="103.9" y2="68.1"/>
	<path class="st2" d="M95.1,70.9c-16.5,33.9-33.1,67.9-49.6,101.8"/>
	<line class="st2" x1="115.8" y1="64.4" x2="226" y2="93.7"/>
	<line class="st2" x1="103.9" y1="68.1" x2="95.1" y2="70.9"/>
	<line class="st2" x1="64.4" y1="188.7" x2="64.4" y2="188.7"/>
	<line class="st2" x1="130.2" y1="268.7" x2="137.6" y2="268.9"/>
	<line class="st2" x1="60.2" y1="184" x2="137.6" y2="268.9"/>
	<line class="st2" x1="60.2" y1="184" x2="45.5" y2="172.7"/>
	<line class="st2" x1="130.2" y1="268.7" x2="51.4" y2="204.4"/>
	<line class="st2" x1="96.6" y1="223.8" x2="96.3" y2="223.6"/>
	<line class="st2" x1="51.4" y1="204.4" x2="45.5" y2="172.7"/>
	<line class="st2" x1="240.9" y1="193.6" x2="267.6" y2="126.2"/>
	<line class="st2" x1="216.1" y1="225.1" x2="260.5" y2="135.1"/>
	<line class="st2" x1="240.9" y1="193.6" x2="213.7" y2="231"/>
	<line class="st2" x1="260.5" y1="135.1" x2="267.6" y2="126.2"/>
	<line class="st2" x1="216.1" y1="225.1" x2="213.7" y2="231"/>
	<line class="st2" x1="137.8" y1="268.9" x2="60.2" y2="184"/>
	<line class="st2" x1="213.7" y1="231" x2="137.8" y2="268.9"/>
	<path class="st2" d="M226,93.7c13.9,10.8,27.8,21.7,41.6,32.5"/>
	<line class="st2" x1="137.8" y1="268.9" x2="137.7" y2="268.9"/>
	<path class="st2" d="M137.7,268.9c0,0-0.1,0-0.1,0"/>
	<line class="st2" x1="133.8" y1="264.5" x2="133.7" y2="264.6"/>
</g>
</svg>
