<?xml version="1.0" encoding="utf-8"?>
<!-- Generator: Adobe Illustrator 21.1.0, SVG Export Plug-In . SVG Version: 6.00 Build 0)  -->
<svg version="1.1" xmlns="http://www.w3.org/2000/svg" xmlns:xlink="http://www.w3.org/1999/xlink" x="0px" y="0px"
	 viewBox="0 0 300 300" style="enable-background:new 0 0 300 300;" xml:space="preserve">
<style type="text/css">
	.st0{display:none;}
	.st1{display:inline;fill:none;stroke:#000000;stroke-linecap:round;stroke-linejoin:round;}
	.st2{fill:none;stroke:#000000;stroke-linecap:round;stroke-linejoin:round;}
</style>
<g id="_x31_" class="st0">
	<rect class="st1" width="300" height="300"/>
</g>
<g id="_x31_::270">
	<line class="st2" x1="179.3" y1="133.4" x2="146.4" y2="164.9"/>
	<line class="st2" x1="245.4" y1="194.1" x2="179.3" y2="133.4"/>
	<line class="st2" x1="146.4" y1="164.9" x2="162.8" y2="252.7"/>
	<path class="st2" d="M52.2,159.8c31.4,1.7,62.8,3.4,94.3,5.1"/>
	<line class="st2" x1="153.7" y1="81.7" x2="179.3" y2="133.4"/>
	<line class="st2" x1="153.7" y1="81.7" x2="142.7" y2="81.4"/>
	<path class="st2" d="M134.6,81.2c-29.3,21.9-58.7,43.7-88,65.6"/>
	<line class="st2" x1="153.7" y1="81.7" x2="240.8" y2="156.6"/>
	<line class="st2" x1="142.7" y1="81.4" x2="134.6" y2="81.2"/>
	<line class="st2" x1="59.2" y1="187.9" x2="59.2" y2="187.9"/>
	<line class="st2" x1="75.5" y1="268.9" x2="79.1" y2="267.9"/>
	<line class="st2" x1="52.2" y1="159.8" x2="79.1" y2="267.9"/>
	<line class="st2" x1="52.2" y1="159.8" x2="46.6" y2="146.8"/>
	<line class="st2" x1="75.5" y1="268.9" x2="45.5" y2="190.3"/>
	<line class="st2" x1="65" y1="211.1" x2="64.9" y2="210.9"/>
	<line class="st2" x1="45.5" y1="190.3" x2="46.6" y2="146.8"/>
	<line class="st2" x1="211.5" y1="254.5" x2="259.2" y2="194.8"/>
	<line class="st2" x1="162.8" y1="252.7" x2="245.4" y2="194.1"/>
	<line class="st2" x1="211.5" y1="254.5" x2="158.3" y2="257.7"/>
	<line class="st2" x1="245.4" y1="194.1" x2="259.2" y2="194.8"/>
	<line class="st2" x1="162.8" y1="252.7" x2="158.3" y2="257.7"/>
	<line class="st2" x1="79.3" y1="267.9" x2="52.2" y2="159.8"/>
	<line class="st2" x1="158.3" y1="257.7" x2="79.3" y2="267.9"/>
	<path class="st2" d="M240.8,156.6c6.1,12.7,12.3,25.5,18.4,38.2"/>
	<line class="st2" x1="79.3" y1="267.9" x2="79.2" y2="267.9"/>
	<path class="st2" d="M79.2,267.9C79.2,267.9,79.2,267.9,79.2,267.9"/>
	<path class="st2" d="M101.7,267.1c-8.7,0.6-17.4,1.2-26.1,1.8"/>
	<line class="st2" x1="174.7" y1="260.2" x2="101.7" y2="267.1"/>
	<path class="st2" d="M211.5,254.5c-12.3,1.9-24.6,3.8-36.8,5.7"/>
</g>
</svg>
