<?xml version="1.0" encoding="utf-8"?>
<!-- Generator: Adobe Illustrator 21.1.0, SVG Export Plug-In . SVG Version: 6.00 Build 0)  -->
<svg version="1.1" xmlns="http://www.w3.org/2000/svg" xmlns:xlink="http://www.w3.org/1999/xlink" x="0px" y="0px"
	 viewBox="0 0 300 300" style="enable-background:new 0 0 300 300;" xml:space="preserve">
<style type="text/css">
	.st0{display:none;}
	.st1{display:inline;fill:none;stroke:#000000;stroke-linecap:round;stroke-linejoin:round;}
	.st2{fill:none;stroke:#000000;stroke-linecap:round;stroke-linejoin:round;}
</style>
<g id="_x31_" class="st0">
	<rect class="st1" width="300" height="300"/>
</g>
<g id="_x31_::300">
	<line class="st2" x1="188.9" y1="134.5" x2="145.4" y2="146.5"/>
	<line class="st2" x1="219.5" y1="213.6" x2="188.9" y2="134.5"/>
	<line class="st2" x1="145.4" y1="146.5" x2="117.7" y2="226.7"/>
	<path class="st2" d="M76.3,118.1c23,9.5,46,18.9,69.1,28.4"/>
	<line class="st2" x1="197.5" y1="94" x2="188.9" y2="134.5"/>
	<line class="st2" x1="197.5" y1="94" x2="189.1" y2="91"/>
	<path class="st2" d="M183,88.8c-34.5,6.5-69,13-103.4,19.5"/>
	<line class="st2" x1="197.5" y1="94" x2="241.8" y2="194.1"/>
	<line class="st2" x1="189.1" y1="91" x2="183" y2="88.8"/>
	<line class="st2" x1="45.5" y1="220.4" x2="46.2" y2="216.4"/>
	<line class="st2" x1="76.3" y1="118.1" x2="46.2" y2="216.4"/>
	<line class="st2" x1="76.3" y1="118.1" x2="79.6" y2="108.3"/>
	<line class="st2" x1="45.5" y1="220.4" x2="45.6" y2="220.1"/>
	<line class="st2" x1="171.4" y1="268.1" x2="235.1" y2="225.5"/>
	<line class="st2" x1="117.7" y1="226.7" x2="219.5" y2="213.6"/>
	<line class="st2" x1="171.4" y1="268.1" x2="111.8" y2="229.7"/>
	<line class="st2" x1="219.5" y1="213.6" x2="235.1" y2="225.5"/>
	<line class="st2" x1="117.7" y1="226.7" x2="111.8" y2="229.7"/>
	<line class="st2" x1="46.4" y1="216.5" x2="76.3" y2="118.1"/>
	<line class="st2" x1="111.8" y1="229.7" x2="46.4" y2="216.5"/>
	<path class="st2" d="M241.8,194.1c-2.2,10.5-4.5,21-6.7,31.4"/>
	<line class="st2" x1="46.4" y1="216.5" x2="46.3" y2="216.4"/>
	<path class="st2" d="M46.3,216.4c-0.3,1.3-0.6,2.6-0.7,4"/>
	<line class="st2" x1="45.6" y1="220.5" x2="45.6" y2="220.4"/>
	<path class="st2" d="M73,237.1c-9.1-5.5-18.2-11.1-27.4-16.6"/>
	<line class="st2" x1="143.5" y1="268.9" x2="73" y2="237.1"/>
	<path class="st2" d="M171.4,268.1c-9.3,0.3-18.6,0.5-27.9,0.8"/>
</g>
</svg>
