<?xml version="1.0" encoding="utf-8"?>
<!-- Generator: Adobe Illustrator 21.1.0, SVG Export Plug-In . SVG Version: 6.00 Build 0)  -->
<svg version="1.1" xmlns="http://www.w3.org/2000/svg" xmlns:xlink="http://www.w3.org/1999/xlink" x="0px" y="0px"
	 viewBox="0 0 300 300" style="enable-background:new 0 0 300 300;" xml:space="preserve">
<style type="text/css">
	.st0{display:none;}
	.st1{display:inline;fill:none;stroke:#000000;stroke-linecap:round;stroke-linejoin:round;}
	.st2{fill:none;stroke:#000000;stroke-linecap:round;stroke-linejoin:round;}
</style>
<g id="_x31_" class="st0">
	<rect class="st1" width="300" height="300"/>
</g>
<g id="_x31_::330">
	<line class="st2" x1="202.1" y1="147.3" x2="157.7" y2="138.8"/>
	<line class="st2" x1="189.9" y1="224.3" x2="202.1" y2="147.3"/>
	<line class="st2" x1="157.7" y1="138.8" x2="92.7" y2="190.9"/>
	<path class="st2" d="M121.4,103.7c12.1,11.7,24.2,23.4,36.3,35.1"/>
	<line class="st2" x1="237.2" y1="130.9" x2="202.1" y2="147.3"/>
	<line class="st2" x1="237.2" y1="130.9" x2="232.2" y2="126.8"/>
	<path class="st2" d="M228.6,123.7c-32.6-7.8-65.2-15.7-97.9-23.5"/>
	<line class="st2" x1="237.2" y1="130.9" x2="229.5" y2="233.2"/>
	<line class="st2" x1="232.2" y1="126.8" x2="228.6" y2="123.7"/>
	<line class="st2" x1="45.6" y1="170.9" x2="45.5" y2="167"/>
	<line class="st2" x1="121.4" y1="103.7" x2="45.5" y2="167"/>
	<line class="st2" x1="121.4" y1="103.7" x2="130.8" y2="100.2"/>
	<line class="st2" x1="130.3" y1="267.4" x2="201.4" y2="246.6"/>
	<line class="st2" x1="92.7" y1="190.9" x2="189.9" y2="224.3"/>
	<line class="st2" x1="130.3" y1="267.4" x2="86.6" y2="191.8"/>
	<line class="st2" x1="189.9" y1="224.3" x2="201.4" y2="246.6"/>
	<line class="st2" x1="92.7" y1="190.9" x2="86.6" y2="191.8"/>
	<line class="st2" x1="45.6" y1="167.1" x2="121.4" y2="103.7"/>
	<line class="st2" x1="86.6" y1="191.8" x2="45.6" y2="167.1"/>
	<line class="st2" x1="229.5" y1="233.2" x2="201.4" y2="246.6"/>
	<line class="st2" x1="45.6" y1="167.1" x2="45.6" y2="167"/>
	<path class="st2" d="M45.6,167c0,2.6,0.1,5.1,0.3,7.7"/>
	<line class="st2" x1="45.9" y1="174.8" x2="45.8" y2="174.7"/>
	<path class="st2" d="M64.9,206.4c-6.3-10.5-12.7-21.1-19-31.6"/>
	<line class="st2" x1="113.3" y1="268.9" x2="64.9" y2="206.4"/>
	<path class="st2" d="M130.3,267.4c-5.7,0.5-11.3,1-17,1.5"/>
</g>
</svg>
