<?xml version="1.0" encoding="utf-8"?>
<!-- Generator: Adobe Illustrator 21.1.0, SVG Export Plug-In . SVG Version: 6.00 Build 0)  -->
<svg version="1.1" id="Layer_1" xmlns="http://www.w3.org/2000/svg" xmlns:xlink="http://www.w3.org/1999/xlink" x="0px" y="0px"
	 viewBox="0 0 1000 600" style="enable-background:new 0 0 1000 600;" xml:space="preserve">
<style type="text/css">
	.st0{fill:none;stroke:#333333;stroke-linecap:round;stroke-linejoin:round;}
	.st1{fill:none;stroke:#333333;stroke-linecap:round;stroke-linejoin:round;stroke-dasharray:5.9104,5.9104;}
	.st2{fill:none;stroke:#333333;stroke-linecap:round;stroke-linejoin:round;stroke-dasharray:6.291,6.291;}
	.st3{fill:none;stroke:#333333;stroke-linecap:round;stroke-linejoin:round;stroke-dasharray:6.7322,6.7322;}
	.st4{fill:none;stroke:#333333;stroke-linecap:round;stroke-linejoin:round;stroke-dasharray:6.0433,6.0433;}
	.st5{fill:none;stroke:#333333;stroke-linecap:round;stroke-linejoin:round;stroke-dasharray:5.6346,5.6346;}
	.st6{fill:none;stroke:#333333;stroke-linecap:round;stroke-linejoin:round;stroke-dasharray:6.0657,6.0657;}
	.st7{fill:none;stroke:#333333;stroke-linecap:round;stroke-linejoin:round;stroke-dasharray:6.0289,6.0289;}
	.st8{fill:none;stroke:#333333;stroke-linecap:round;stroke-linejoin:round;stroke-dasharray:5.8568,5.8568;}
	.st9{fill:none;stroke:#333333;stroke-linecap:round;stroke-linejoin:round;stroke-dasharray:5.9027,5.9027;}
	.st10{fill:none;stroke:#333333;stroke-linecap:round;stroke-linejoin:round;stroke-dasharray:5.8781,5.8781;}
	.st11{fill:none;stroke:#333333;stroke-linecap:round;stroke-linejoin:round;stroke-dasharray:0.3053;}
	.st12{fill:none;stroke:#333333;stroke-linecap:round;stroke-linejoin:round;stroke-dasharray:5.9073,5.9073;}
	.st13{fill:none;stroke:#333333;stroke-linecap:round;stroke-linejoin:round;stroke-dasharray:6.1256,6.1256;}
	.st14{fill:none;stroke:#333333;stroke-linecap:round;stroke-linejoin:round;stroke-dasharray:6.098,6.098;}
	.st15{fill:none;stroke:#333333;stroke-linecap:round;stroke-linejoin:round;stroke-dasharray:5.9124,5.9124;}
	.st16{fill:none;stroke:#333333;stroke-linecap:round;stroke-linejoin:round;stroke-dasharray:6.0329,6.0329;}
	.st17{fill:none;stroke:#333333;stroke-linecap:round;stroke-linejoin:round;stroke-dasharray:6.2348,6.2348;}
</style>
<line class="st0" x1="622.6" y1="543.5" x2="586.1" y2="508.8"/>
<line class="st0" x1="45.3" y1="286.3" x2="114.2" y2="95.9"/>
<path class="st0" d="M954.7-73.4c-8.5,178.7-17.1,357.3-25.6,536"/>
<line class="st0" x1="412.6" y1="128.9" x2="954.7" y2="-73.4"/>
<line class="st0" x1="412.6" y1="128.9" x2="131" y2="49.3"/>
<line class="st0" x1="131" y1="49.3" x2="210.8" y2="-1.4"/>
<line class="st0" x1="586.1" y1="508.8" x2="412.6" y2="128.9"/>
<line class="st0" x1="114.2" y1="95.9" x2="131" y2="49.3"/>
<line class="st0" x1="887.5" y1="502.6" x2="470.2" y2="747.4"/>
<line class="st0" x1="887.5" y1="502.6" x2="929.1" y2="462.6"/>
<line class="st0" x1="421.2" y1="750.9" x2="622.6" y2="543.5"/>
<line class="st0" x1="276.9" y1="622.4" x2="586.1" y2="508.8"/>
<line class="st0" x1="622.6" y1="543.5" x2="929.1" y2="462.6"/>
<line class="st0" x1="45.3" y1="286.3" x2="276.9" y2="622.4"/>
<line class="st0" x1="420.6" y1="750.4" x2="622.6" y2="543.5"/>
<g>
	<g>
		<line class="st0" x1="171.7" y1="233.4" x2="173.8" y2="235.5"/>
		<line class="st1" x1="178.2" y1="239.5" x2="461.3" y2="503.5"/>
		<line class="st0" x1="463.5" y1="505.6" x2="465.7" y2="507.6"/>
	</g>
</g>
<g>
	<g>
		<line class="st0" x1="473.9" y1="84.5" x2="471.8" y2="82.4"/>
		<line class="st2" x1="467.3" y1="77.9" x2="398.2" y2="9.1"/>
		<line class="st0" x1="396" y1="6.9" x2="393.9" y2="4.8"/>
	</g>
</g>
<g>
	<g>
		<line class="st0" x1="478.4" y1="484.7" x2="477" y2="487.3"/>
		<line class="st3" x1="473.7" y1="493.2" x2="468.8" y2="502"/>
		<line class="st0" x1="467.1" y1="505" x2="465.7" y2="507.6"/>
	</g>
</g>
<g>
	<g>
		<line class="st4" x1="478" y1="742.2" x2="882.3" y2="505.7"/>
		<line class="st0" x1="884.9" y1="504.2" x2="887.5" y2="502.6"/>
	</g>
</g>
<g>
	<g>
		<line class="st0" x1="478.4" y1="484.7" x2="478.4" y2="481.7"/>
		<line class="st6" x1="478.3" y1="475.7" x2="473.9" y2="90.5"/>
		<line class="st0" x1="473.9" y1="87.5" x2="473.9" y2="84.5"/>
	</g>
</g>
<g>
	<g>
		<line class="st0" x1="465.7" y1="507.6" x2="465.7" y2="510.6"/>
		<line class="st7" x1="465.8" y1="516.6" x2="469.2" y2="694.4"/>
	</g>
</g>
<g>
	<g>
		<path class="st0" d="M394.8,1.9c-0.3,0.9-0.6,1.9-1,2.8"/>
	</g>
</g>
<g>
	<g>
		<line class="st0" x1="171.7" y1="233.4" x2="173.7" y2="231.3"/>
		<line class="st9" x1="177.9" y1="227" x2="389.7" y2="9"/>
		<line class="st0" x1="391.8" y1="6.9" x2="393.9" y2="4.8"/>
	</g>
</g>
<g>
	<g>
		<line class="st10" x1="917.9" y1="-96.4" x2="784.5" y2="93.7"/>
		<line class="st0" x1="782.8" y1="96.1" x2="781.1" y2="98.5"/>
	</g>
</g>
<g>
	<g>
		<path class="st0" d="M887.5,502.6c-0.5-0.9-1-1.7-1.6-2.6"/>
		<path class="st12" d="M882.9,495c-40.3-66.5-80.5-133.1-120.8-199.6"/>
		<path class="st0" d="M760.6,292.8c-0.5-0.9-1-1.7-1.6-2.6"/>
	</g>
</g>
<g>
	<g>
		<line class="st0" x1="759" y1="290.3" x2="756.6" y2="292"/>
		<line class="st14" x1="751.5" y1="295.5" x2="483.4" y2="481.3"/>
		<line class="st0" x1="480.9" y1="483" x2="478.4" y2="484.7"/>
	</g>
</g>
<g>
	<g>
		<line class="st0" x1="473.9" y1="84.5" x2="476.9" y2="84.6"/>
		<line class="st15" x1="482.8" y1="84.9" x2="775.1" y2="98.3"/>
		<line class="st0" x1="778.1" y1="98.4" x2="781.1" y2="98.5"/>
	</g>
</g>
<g>
	<g>
		<line class="st0" x1="781.1" y1="98.5" x2="780.7" y2="101.5"/>
		<line class="st16" x1="780.1" y1="107.5" x2="759.7" y2="284.3"/>
		<line class="st0" x1="759.4" y1="287.3" x2="759" y2="290.3"/>
	</g>
</g>
<g>
	<g>
		<path class="st0" d="M171.7,233.4c-0.9,0.4-1.8,0.8-2.8,1.2"/>
		<path class="st17" d="M163.1,237c-37.4,15.6-74.8,31.3-112.2,46.9"/>
		<path class="st0" d="M48.1,285.1c-0.9,0.4-1.8,0.8-2.8,1.2"/>
	</g>
</g>
</svg>
