<?xml version="1.0" encoding="utf-8"?>
<!-- Generator: Adobe Illustrator 21.1.0, SVG Export Plug-In . SVG Version: 6.00 Build 0)  -->
<svg version="1.1" xmlns="http://www.w3.org/2000/svg" xmlns:xlink="http://www.w3.org/1999/xlink" x="0px" y="0px"
	 viewBox="0 0 300 300" style="enable-background:new 0 0 300 300;" xml:space="preserve">
<style type="text/css">
	.st0{display:none;}
	.st1{display:inline;fill:none;stroke:#000000;stroke-linecap:round;stroke-linejoin:round;}
	.st2{fill:none;stroke:#000000;stroke-linecap:round;stroke-linejoin:round;}
</style>
<g id="_x31_" class="st0">
	<rect class="st1" width="300" height="300"/>
</g>
<g id="_x32_::000_-_Copy">
	<line class="st2" x1="224" y1="198.2" x2="203.8" y2="160.6"/>
	<line class="st2" x1="212.9" y1="204.1" x2="224" y2="198.2"/>
	<line class="st2" x1="203.8" y1="160.6" x2="168.4" y2="116.1"/>
	<line class="st2" x1="202.6" y1="244.5" x2="224" y2="198.2"/>
	<line class="st2" x1="202.6" y1="244.5" x2="179.2" y2="268.9"/>
	<line class="st2" x1="45.5" y1="258.4" x2="74.6" y2="260.7"/>
	<line class="st2" x1="45.6" y1="249.4" x2="45.5" y2="258.4"/>
	<line class="st2" x1="79.7" y1="103.4" x2="98.4" y2="94.4"/>
	<line class="st2" x1="98.4" y1="94.4" x2="98.4" y2="94.4"/>
	<line class="st2" x1="79.7" y1="103.4" x2="79.7" y2="103.4"/>
	<line class="st2" x1="108.3" y1="196.8" x2="197.7" y2="229.2"/>
	<line class="st2" x1="168.4" y1="116.1" x2="212.9" y2="204.1"/>
	<line class="st2" x1="108.3" y1="196.8" x2="162.2" y2="112.5"/>
	<line class="st2" x1="212.9" y1="204.1" x2="197.7" y2="229.2"/>
	<line class="st2" x1="168.4" y1="116.1" x2="162.2" y2="112.5"/>
	<line class="st2" x1="162.2" y1="112.5" x2="98.5" y2="94.4"/>
	<path class="st2" d="M179.2,268.9c6.2-13.3,12.4-26.5,18.5-39.8"/>
	<line class="st2" x1="74.6" y1="260.7" x2="179.2" y2="268.9"/>
	<line class="st2" x1="46" y1="207" x2="45.6" y2="249.4"/>
	<line class="st2" x1="98.5" y1="94.4" x2="98.5" y2="94.4"/>
	<path class="st2" d="M98.5,94.4c-6.3,3-12.6,6-18.8,9"/>
	<line class="st2" x1="79.6" y1="103.5" x2="79.6" y2="103.4"/>
	<path class="st2" d="M56.8,137.6c7.6-11.4,15.2-22.7,22.8-34.1"/>
	<line class="st2" x1="46" y1="207" x2="56.8" y2="137.6"/>
	<path class="st2" d="M108.3,196.8c-20.8,3.4-41.6,6.8-62.4,10.3"/>
</g>
</svg>
