<?xml version="1.0" encoding="utf-8"?>
<!-- Generator: Adobe Illustrator 21.1.0, SVG Export Plug-In . SVG Version: 6.00 Build 0)  -->
<svg version="1.1" xmlns="http://www.w3.org/2000/svg" xmlns:xlink="http://www.w3.org/1999/xlink" x="0px" y="0px"
	 viewBox="0 0 300 300" style="enable-background:new 0 0 300 300;" xml:space="preserve">
<style type="text/css">
	.st0{display:none;}
	.st1{display:inline;fill:none;stroke:#000000;stroke-linecap:round;stroke-linejoin:round;}
	.st2{fill:none;stroke:#000000;stroke-linecap:round;stroke-linejoin:round;}
</style>
<g id="_x31_" class="st0">
	<rect class="st1" width="300" height="300"/>
</g>
<g id="_x32_::030_-_Copy">
	<line class="st2" x1="251.9" y1="214.4" x2="240.5" y2="226.4"/>
	<line class="st2" x1="187.9" y1="268.9" x2="240.5" y2="226.4"/>
	<line class="st2" x1="187.9" y1="268.9" x2="179.4" y2="265.4"/>
	<line class="st2" x1="187.9" y1="268.9" x2="186.5" y2="266"/>
	<line class="st2" x1="179.4" y1="265.4" x2="173.1" y2="262.8"/>
	<line class="st2" x1="45.5" y1="206.5" x2="173.1" y2="262.8"/>
	<line class="st2" x1="45.5" y1="206.5" x2="51.9" y2="207.8"/>
	<line class="st2" x1="51.9" y1="207.8" x2="81.9" y2="220.8"/>
	<line class="st2" x1="75.7" y1="152.7" x2="45.5" y2="206.5"/>
	<line class="st2" x1="58.8" y1="197.9" x2="51.9" y2="207.8"/>
	<line class="st2" x1="156.9" y1="83.7" x2="167.9" y2="83.4"/>
	<line class="st2" x1="167.9" y1="83.5" x2="167.9" y2="83.4"/>
	<line class="st2" x1="114.7" y1="102.4" x2="75.7" y2="152.7"/>
	<line class="st2" x1="162.3" y1="164.4" x2="231.7" y2="229.6"/>
	<line class="st2" x1="238.1" y1="122.8" x2="251.9" y2="214.4"/>
	<line class="st2" x1="162.3" y1="164.4" x2="233.8" y2="117.4"/>
	<line class="st2" x1="251.9" y1="214.4" x2="231.7" y2="229.6"/>
	<line class="st2" x1="238.1" y1="122.8" x2="233.8" y2="117.4"/>
	<line class="st2" x1="233.8" y1="117.4" x2="168.1" y2="83.5"/>
	<path class="st2" d="M186.5,266c15.1-12.2,30.1-24.3,45.2-36.5"/>
	<line class="st2" x1="81.9" y1="220.8" x2="186.5" y2="266"/>
	<line class="st2" x1="90" y1="152.7" x2="58.8" y2="197.9"/>
	<line class="st2" x1="168.1" y1="83.5" x2="168" y2="83.5"/>
	<path class="st2" d="M168,83.5c-7.4,0.2-14.7,0.4-22.1,0.6"/>
	<line class="st2" x1="145.8" y1="84.1" x2="145.9" y2="84.1"/>
	<path class="st2" d="M114.7,102.4c10.4-6.1,20.8-12.2,31.1-18.3"/>
	<line class="st2" x1="90" y1="152.7" x2="114.7" y2="102.4"/>
	<path class="st2" d="M162.3,164.4c-24.1-3.9-48.2-7.8-72.3-11.8"/>
</g>
</svg>
