<?xml version="1.0" encoding="utf-8"?>
<!-- Generator: Adobe Illustrator 21.1.0, SVG Export Plug-In . SVG Version: 6.00 Build 0)  -->
<svg version="1.1" xmlns="http://www.w3.org/2000/svg" xmlns:xlink="http://www.w3.org/1999/xlink" x="0px" y="0px"
	 viewBox="0 0 300 300" style="enable-background:new 0 0 300 300;" xml:space="preserve">
<style type="text/css">
	.st0{display:none;}
	.st1{display:inline;fill:none;stroke:#000000;stroke-linecap:round;stroke-linejoin:round;}
	.st2{fill:none;stroke:#000000;stroke-linecap:round;stroke-linejoin:round;}
</style>
<g id="_x31_" class="st0">
	<rect class="st1" width="300.4" height="300.4"/>
</g>
<g id="_x32_::060_-_Copy">
	<line class="st2" x1="264.2" y1="225.5" x2="226.7" y2="244.5"/>
	<line class="st2" x1="150.4" y1="269.3" x2="226.7" y2="244.5"/>
	<line class="st2" x1="150.4" y1="269.3" x2="141.6" y2="263.6"/>
	<line class="st2" x1="150.4" y1="269.3" x2="181.7" y2="248.8"/>
	<line class="st2" x1="141.6" y1="263.6" x2="135.2" y2="259.4"/>
	<line class="st2" x1="45.6" y1="148.4" x2="135.2" y2="259.4"/>
	<line class="st2" x1="45.6" y1="148.4" x2="72.6" y2="141.7"/>
	<line class="st2" x1="72.6" y1="141.7" x2="97" y2="165.7"/>
	<line class="st2" x1="87.5" y1="117.3" x2="45.6" y2="148.4"/>
	<line class="st2" x1="85.2" y1="134.6" x2="72.6" y2="141.7"/>
	<line class="st2" x1="165.4" y1="79" x2="87.5" y2="117.3"/>
	<line class="st2" x1="208.2" y1="141.2" x2="245.4" y2="228.6"/>
	<line class="st2" x1="274.5" y1="144.2" x2="264.2" y2="225.5"/>
	<line class="st2" x1="208.2" y1="141.2" x2="272.5" y2="137.8"/>
	<line class="st2" x1="264.2" y1="225.5" x2="245.4" y2="228.6"/>
	<line class="st2" x1="274.5" y1="144.2" x2="272.5" y2="137.8"/>
	<line class="st2" x1="272.5" y1="137.8" x2="214.1" y2="88.4"/>
	<path class="st2" d="M181.7,248.8c21.2-6.7,42.4-13.5,63.7-20.2"/>
	<line class="st2" x1="97" y1="165.7" x2="181.7" y2="248.8"/>
	<line class="st2" x1="141.5" y1="103.2" x2="85.2" y2="134.6"/>
	<line class="st2" x1="214.1" y1="88.4" x2="214" y2="88.3"/>
	<path class="st2" d="M214,88.3c-6.6-2.9-13.3-5.8-19.9-8.7"/>
	<line class="st2" x1="194" y1="79.6" x2="194.1" y2="79.6"/>
	<path class="st2" d="M165.4,79c9.6,0.2,19.1,0.4,28.7,0.6"/>
	<line class="st2" x1="141.5" y1="103.2" x2="165.4" y2="79"/>
	<path class="st2" d="M208.2,141.2c-22.2-12.7-44.4-25.3-66.7-38"/>
</g>
</svg>
