<?xml version="1.0" encoding="utf-8"?>
<!-- Generator: Adobe Illustrator 21.1.0, SVG Export Plug-In . SVG Version: 6.00 Build 0)  -->
<svg version="1.1" xmlns="http://www.w3.org/2000/svg" xmlns:xlink="http://www.w3.org/1999/xlink" x="0px" y="0px"
	 viewBox="0 0 300 300" style="enable-background:new 0 0 300 300;" xml:space="preserve">
<style type="text/css">
	.st0{display:none;}
	.st1{display:inline;fill:none;stroke:#000000;stroke-linecap:round;stroke-linejoin:round;}
	.st2{fill:none;stroke:#000000;stroke-linecap:round;stroke-linejoin:round;}
</style>
<g id="_x31_" class="st0">
	<rect class="st1" width="300" height="300"/>
</g>
<g id="_x32_::090_-_Copy">
	<line class="st2" x1="233.8" y1="255.3" x2="173" y2="268.9"/>
	<line class="st2" x1="86.9" y1="264.2" x2="173" y2="268.9"/>
	<line class="st2" x1="86.9" y1="264.2" x2="78.9" y2="256.2"/>
	<line class="st2" x1="86.9" y1="264.2" x2="154.4" y2="241.6"/>
	<line class="st2" x1="78.9" y1="256.2" x2="73.1" y2="250.4"/>
	<line class="st2" x1="45.5" y1="105.5" x2="73.1" y2="250.4"/>
	<line class="st2" x1="45.5" y1="105.5" x2="93" y2="101.6"/>
	<line class="st2" x1="93" y1="101.6" x2="106.7" y2="132.7"/>
	<line class="st2" x1="108.1" y1="100.5" x2="93" y2="101.6"/>
	<line class="st2" x1="220.7" y1="154.7" x2="222.5" y2="247"/>
	<line class="st2" x1="256.8" y1="195" x2="233.8" y2="255.3"/>
	<line class="st2" x1="220.7" y1="154.7" x2="257.1" y2="188.8"/>
	<line class="st2" x1="233.8" y1="255.3" x2="222.5" y2="247"/>
	<line class="st2" x1="256.8" y1="195" x2="257.1" y2="188.8"/>
	<line class="st2" x1="257.1" y1="188.8" x2="212.5" y2="128.4"/>
	<path class="st2" d="M154.4,241.6c22.7,1.8,45.4,3.7,68.1,5.5"/>
	<line class="st2" x1="106.7" y1="132.7" x2="154.4" y2="241.6"/>
	<line class="st2" x1="173.6" y1="95.7" x2="108.1" y2="100.5"/>
	<line class="st2" x1="212.5" y1="128.4" x2="212.5" y2="128.3"/>
	<path class="st2" d="M212.5,128.3c-4.5-5.3-8.9-10.7-13.4-16"/>
	<line class="st2" x1="199.1" y1="112.2" x2="199.1" y2="112.3"/>
	<path class="st2" d="M182.3,95.7c5.6,5.5,11.2,11,16.8,16.5"/>
	<line class="st2" x1="173.6" y1="95.7" x2="182.3" y2="95.7"/>
	<path class="st2" d="M220.7,154.7c-15.7-19.7-31.4-39.3-47.1-59"/>
</g>
</svg>
