<?xml version="1.0" encoding="utf-8"?>
<!-- Generator: Adobe Illustrator 21.1.0, SVG Export Plug-In . SVG Version: 6.00 Build 0)  -->
<svg version="1.1" xmlns="http://www.w3.org/2000/svg" xmlns:xlink="http://www.w3.org/1999/xlink" x="0px" y="0px"
	 viewBox="0 0 300 300" style="enable-background:new 0 0 300 300;" xml:space="preserve">
<style type="text/css">
	.st0{display:none;}
	.st1{display:inline;fill:none;stroke:#000000;stroke-linecap:round;stroke-linejoin:round;}
	.st2{fill:none;stroke:#000000;stroke-linecap:round;stroke-linejoin:round;}
</style>
<g id="_x31_" class="st0">
	<rect class="st1" width="300" height="300"/>
</g>
<g id="_x32_::120_-_Copy">
	<line class="st2" x1="210" y1="268.9" x2="134.1" y2="266.1"/>
	<line class="st2" x1="56.1" y1="226.1" x2="134.1" y2="266.1"/>
	<line class="st2" x1="56.1" y1="226.1" x2="50" y2="216.4"/>
	<line class="st2" x1="56.1" y1="226.1" x2="153.1" y2="219.6"/>
	<line class="st2" x1="50" y1="216.4" x2="45.5" y2="209.3"/>
	<line class="st2" x1="85.6" y1="65.8" x2="45.5" y2="209.3"/>
	<line class="st2" x1="85.6" y1="65.8" x2="145.6" y2="74.8"/>
	<line class="st2" x1="145.6" y1="74.8" x2="147.3" y2="106.3"/>
	<line class="st2" x1="158.8" y1="80.5" x2="145.6" y2="74.8"/>
	<line class="st2" x1="236.4" y1="173.2" x2="210.1" y2="253"/>
	<line class="st2" x1="232.3" y1="234.4" x2="210" y2="268.9"/>
	<line class="st2" x1="236.4" y1="173.2" x2="234.1" y2="229.3"/>
	<line class="st2" x1="210" y1="268.9" x2="210.1" y2="253"/>
	<line class="st2" x1="232.3" y1="234.4" x2="234.1" y2="229.3"/>
	<path class="st2" d="M153.1,219.6c19,11.1,38,22.2,57,33.3"/>
	<line class="st2" x1="147.3" y1="106.3" x2="153.1" y2="219.6"/>
	<line class="st2" x1="214.9" y1="104.8" x2="158.8" y2="80.5"/>
	<path class="st2" d="M236.4,173.2c-7.2-22.8-14.3-45.6-21.5-68.4"/>
</g>
</svg>
