<?xml version="1.0" encoding="utf-8"?>
<!-- Generator: Adobe Illustrator 21.1.0, SVG Export Plug-In . SVG Version: 6.00 Build 0)  -->
<svg version="1.1" xmlns="http://www.w3.org/2000/svg" xmlns:xlink="http://www.w3.org/1999/xlink" x="0px" y="0px"
	 viewBox="0 0 300 300" style="enable-background:new 0 0 300 300;" xml:space="preserve">
<style type="text/css">
	.st0{display:none;}
	.st1{display:inline;fill:none;stroke:#000000;stroke-linecap:round;stroke-linejoin:round;}
	.st2{fill:none;stroke:#000000;stroke-linecap:round;stroke-linejoin:round;}
</style>
<g id="_x31_" class="st0">
	<rect class="st1" width="300" height="300"/>
</g>
<g id="_x32_::150_-_Copy">
	<line class="st2" x1="184" y1="268.9" x2="104.2" y2="241.5"/>
	<line class="st2" x1="51.9" y1="169.4" x2="104.2" y2="241.5"/>
	<line class="st2" x1="51.9" y1="169.4" x2="48.2" y2="159"/>
	<line class="st2" x1="51.9" y1="169.4" x2="162.9" y2="194.4"/>
	<line class="st2" x1="48.2" y1="159" x2="45.5" y2="151.3"/>
	<line class="st2" x1="136.2" y1="44.8" x2="45.5" y2="151.3"/>
	<line class="st2" x1="136.2" y1="44.8" x2="197.3" y2="71.8"/>
	<line class="st2" x1="197.3" y1="71.8" x2="190.1" y2="97.7"/>
	<line class="st2" x1="205.4" y1="82.7" x2="197.3" y2="71.8"/>
	<line class="st2" x1="237.8" y1="195.2" x2="196.7" y2="250.5"/>
	<line class="st2" x1="193.1" y1="259.2" x2="184" y2="268.9"/>
	<line class="st2" x1="237.8" y1="195.2" x2="195.7" y2="255.8"/>
	<line class="st2" x1="184" y1="268.9" x2="196.7" y2="250.5"/>
	<line class="st2" x1="193.1" y1="259.2" x2="195.7" y2="255.8"/>
	<path class="st2" d="M162.9,194.4c11.3,18.7,22.6,37.4,33.9,56.1"/>
	<line class="st2" x1="190.1" y1="97.7" x2="162.9" y2="194.4"/>
	<line class="st2" x1="239.8" y1="129" x2="205.4" y2="82.7"/>
	<path class="st2" d="M237.8,195.2c0.7-22.1,1.3-44.1,2-66.2"/>
</g>
</svg>
