<?xml version="1.0" encoding="utf-8"?>
<!-- Generator: Adobe Illustrator 21.1.0, SVG Export Plug-In . SVG Version: 6.00 Build 0)  -->
<svg version="1.1" xmlns="http://www.w3.org/2000/svg" xmlns:xlink="http://www.w3.org/1999/xlink" x="0px" y="0px"
	 viewBox="0 0 300 300" style="enable-background:new 0 0 300 300;" xml:space="preserve">
<style type="text/css">
	.st0{display:none;}
	.st1{display:inline;fill:none;stroke:#000000;stroke-linecap:round;stroke-linejoin:round;}
	.st2{fill:none;stroke:#000000;stroke-linecap:round;stroke-linejoin:round;}
</style>
<g id="_x31_" class="st0">
	<rect class="st1" width="300" height="300"/>
</g>
<g id="_x32_::180_-_Copy">
	<line class="st2" x1="61.9" y1="204.6" x2="63.5" y2="215.9"/>
	<line class="st2" x1="132.1" y1="259.6" x2="61.9" y2="204.6"/>
	<line class="st2" x1="63.5" y1="215.9" x2="117.5" y2="268.9"/>
	<line class="st2" x1="51.6" y1="137.9" x2="63.5" y2="215.9"/>
	<line class="st2" x1="48.1" y1="113.7" x2="61.9" y2="204.6"/>
	<line class="st2" x1="48.1" y1="113.7" x2="46.6" y2="103.9"/>
	<path class="st2" d="M45.5,96.8c1,6.8,2,13.7,3,20.5"/>
	<line class="st2" x1="48.1" y1="113.7" x2="151.6" y2="176.9"/>
	<line class="st2" x1="46.6" y1="103.9" x2="45.5" y2="96.8"/>
	<line class="st2" x1="153.1" y1="51.5" x2="45.5" y2="96.8"/>
	<line class="st2" x1="153.1" y1="51.5" x2="204.9" y2="95.5"/>
	<line class="st2" x1="204.9" y1="95.5" x2="193.9" y2="112.2"/>
	<line class="st2" x1="206.7" y1="108.7" x2="204.9" y2="95.5"/>
	<line class="st2" x1="51.6" y1="137.9" x2="48.5" y2="117.3"/>
	<line class="st2" x1="195.7" y1="220.3" x2="156" y2="244.7"/>
	<line class="st2" x1="117.5" y1="268.9" x2="132.1" y2="259.6"/>
	<line class="st2" x1="195.7" y1="220.3" x2="119.9" y2="267.5"/>
	<line class="st2" x1="132.1" y1="259.6" x2="156" y2="244.7"/>
	<line class="st2" x1="117.5" y1="268.9" x2="119.9" y2="267.5"/>
	<path class="st2" d="M151.6,176.9c1.5,22.6,2.9,45.2,4.4,67.9"/>
	<line class="st2" x1="193.9" y1="112.2" x2="151.6" y2="176.9"/>
	<line class="st2" x1="214.4" y1="165.8" x2="206.7" y2="108.7"/>
	<path class="st2" d="M195.7,220.3c6.2-18.2,12.5-36.3,18.7-54.5"/>
</g>
</svg>
