<?xml version="1.0" encoding="utf-8"?>
<!-- Generator: Adobe Illustrator 21.1.0, SVG Export Plug-In . SVG Version: 6.00 Build 0)  -->
<svg version="1.1" xmlns="http://www.w3.org/2000/svg" xmlns:xlink="http://www.w3.org/1999/xlink" x="0px" y="0px"
	 viewBox="0 0 300 300" style="enable-background:new 0 0 300 300;" xml:space="preserve">
<style type="text/css">
	.st0{display:none;}
	.st1{display:inline;fill:none;stroke:#000000;stroke-linecap:round;stroke-linejoin:round;}
	.st2{fill:none;stroke:#000000;stroke-linecap:round;stroke-linejoin:round;}
</style>
<g id="_x31_" class="st0">
	<rect class="st1" width="300" height="300"/>
</g>
<g id="_x32_::210_-_Copy">
	<line class="st2" x1="61.2" y1="173.9" x2="45.5" y2="191.4"/>
	<line class="st2" x1="108" y1="250.9" x2="61.2" y2="173.9"/>
	<line class="st2" x1="45.5" y1="191.4" x2="63.8" y2="268.4"/>
	<path class="st2" d="M45.6,126.9c0,21.5-0.1,43-0.1,64.5"/>
	<line class="st2" x1="86.7" y1="87.3" x2="61.2" y2="173.9"/>
	<line class="st2" x1="86.7" y1="87.3" x2="86.3" y2="79.7"/>
	<path class="st2" d="M86.1,74.1c-11.6,11.1-23.2,22.3-34.9,33.4"/>
	<line class="st2" x1="86.7" y1="87.3" x2="161.4" y2="181.6"/>
	<line class="st2" x1="86.3" y1="79.7" x2="86.1" y2="74.1"/>
	<line class="st2" x1="171.1" y1="93.7" x2="86.1" y2="74.1"/>
	<line class="st2" x1="171.1" y1="93.7" x2="206.7" y2="148.5"/>
	<line class="st2" x1="206.7" y1="148.5" x2="197.6" y2="155.2"/>
	<line class="st2" x1="202.8" y1="161" x2="206.7" y2="148.5"/>
	<line class="st2" x1="45.6" y1="126.9" x2="51.2" y2="107.5"/>
	<line class="st2" x1="160.1" y1="251.5" x2="138" y2="245.4"/>
	<line class="st2" x1="63.8" y1="268.4" x2="108" y2="250.9"/>
	<line class="st2" x1="160.1" y1="251.5" x2="64.8" y2="268.9"/>
	<line class="st2" x1="108" y1="250.9" x2="138" y2="245.4"/>
	<line class="st2" x1="63.8" y1="268.4" x2="64.8" y2="268.9"/>
	<path class="st2" d="M161.4,181.6c-7.8,21.3-15.6,42.5-23.3,63.8"/>
	<line class="st2" x1="197.6" y1="155.2" x2="161.4" y2="181.6"/>
	<line class="st2" x1="185.6" y1="215.9" x2="202.8" y2="161"/>
	<path class="st2" d="M160.1,251.5c8.5-11.9,17-23.7,25.5-35.6"/>
</g>
</svg>
