<?xml version="1.0" encoding="utf-8"?>
<!-- Generator: Adobe Illustrator 21.1.0, SVG Export Plug-In . SVG Version: 6.00 Build 0)  -->
<svg version="1.1" xmlns="http://www.w3.org/2000/svg" xmlns:xlink="http://www.w3.org/1999/xlink" x="0px" y="0px"
	 viewBox="0 0 300 300" style="enable-background:new 0 0 300 300;" xml:space="preserve">
<style type="text/css">
	.st0{display:none;}
	.st1{display:inline;fill:none;stroke:#000000;stroke-linecap:round;stroke-linejoin:round;}
	.st2{fill:none;stroke:#000000;stroke-linecap:round;stroke-linejoin:round;}
</style>
<g id="_x31_" class="st0">
	<rect class="st1" width="300" height="300"/>
</g>
<g id="_x32_::240_-_Copy">
	<line class="st2" x1="103" y1="148.3" x2="71.2" y2="162.6"/>
	<line class="st2" x1="119.8" y1="233.7" x2="103" y2="148.3"/>
	<line class="st2" x1="71.2" y1="162.6" x2="48.1" y2="244.5"/>
	<path class="st2" d="M72.7,118.4c-0.5,14.7-1,29.5-1.5,44.2"/>
	<line class="st2" x1="153.6" y1="87.2" x2="103" y2="148.3"/>
	<line class="st2" x1="153.6" y1="87.2" x2="153.1" y2="82.3"/>
	<path class="st2" d="M152.6,78.7c-22.8,8.6-45.6,17.3-68.4,25.9"/>
	<line class="st2" x1="153.6" y1="87.2" x2="189.8" y2="195.3"/>
	<line class="st2" x1="153.1" y1="82.3" x2="152.6" y2="78.7"/>
	<line class="st2" x1="187.9" y1="145.5" x2="152.6" y2="78.7"/>
	<line class="st2" x1="187.9" y1="145.5" x2="205.9" y2="203.2"/>
	<line class="st2" x1="205.9" y1="203.2" x2="202.6" y2="201.6"/>
	<line class="st2" x1="198" y1="212.6" x2="205.9" y2="203.2"/>
	<line class="st2" x1="72.7" y1="118.4" x2="84.3" y2="104.7"/>
	<line class="st2" x1="141.4" y1="268.9" x2="148.9" y2="240.9"/>
	<line class="st2" x1="48.1" y1="244.5" x2="119.8" y2="233.7"/>
	<line class="st2" x1="141.4" y1="268.9" x2="46.9" y2="246.5"/>
	<line class="st2" x1="119.8" y1="233.7" x2="148.9" y2="240.9"/>
	<line class="st2" x1="48.1" y1="244.5" x2="46.9" y2="246.5"/>
	<line class="st2" x1="45.5" y1="218.4" x2="72.7" y2="118.4"/>
	<line class="st2" x1="46.9" y1="246.5" x2="45.5" y2="218.5"/>
	<line class="st2" x1="189.8" y1="195.3" x2="148.9" y2="240.9"/>
	<line class="st2" x1="202.6" y1="201.6" x2="189.8" y2="195.3"/>
	<line class="st2" x1="162.8" y1="254.7" x2="198" y2="212.6"/>
	<path class="st2" d="M141.4,268.9c7.1-4.7,14.3-9.5,21.4-14.2"/>
</g>
</svg>
