<?xml version="1.0" encoding="utf-8"?>
<!-- Generator: Adobe Illustrator 21.1.0, SVG Export Plug-In . SVG Version: 6.00 Build 0)  -->
<svg version="1.1" xmlns="http://www.w3.org/2000/svg" xmlns:xlink="http://www.w3.org/1999/xlink" x="0px" y="0px"
	 viewBox="0 0 300 300" style="enable-background:new 0 0 300 300;" xml:space="preserve">
<style type="text/css">
	.st0{display:none;}
	.st1{display:inline;fill:none;stroke:#000000;stroke-linecap:round;stroke-linejoin:round;}
	.st2{fill:none;stroke:#000000;stroke-linecap:round;stroke-linejoin:round;}
</style>
<g id="_x31_" class="st0">
	<rect class="st1" width="300" height="300"/>
</g>
<g id="_x32_::270_-_Copy">
	<line class="st2" x1="162.1" y1="130.1" x2="120.5" y2="133"/>
	<line class="st2" x1="152.5" y1="208.4" x2="162.1" y2="130.1"/>
	<line class="st2" x1="120.5" y1="133" x2="63.2" y2="198.2"/>
	<path class="st2" d="M112.2,108.7c2.8,8.1,5.6,16.2,8.3,24.3"/>
	<line class="st2" x1="217" y1="104.9" x2="162.1" y2="130.1"/>
	<line class="st2" x1="217" y1="104.9" x2="215.1" y2="102.2"/>
	<path class="st2" d="M213.6,100.2c-29.4,1-58.8,1.9-88.3,2.9"/>
	<line class="st2" x1="217" y1="104.9" x2="217.9" y2="208.4"/>
	<line class="st2" x1="215.1" y1="102.2" x2="213.6" y2="100.2"/>
	<line class="st2" x1="192.8" y1="241.8" x2="197.9" y2="235"/>
	<line class="st2" x1="183.2" y1="246.6" x2="192.8" y2="241.8"/>
	<line class="st2" x1="112.2" y1="108.7" x2="125.4" y2="103.1"/>
	<line class="st2" x1="132" y1="263.7" x2="173.9" y2="227.9"/>
	<line class="st2" x1="63.2" y1="198.2" x2="152.5" y2="208.4"/>
	<line class="st2" x1="132" y1="263.7" x2="59.4" y2="200.4"/>
	<line class="st2" x1="152.5" y1="208.4" x2="173.9" y2="227.9"/>
	<line class="st2" x1="63.2" y1="198.2" x2="59.4" y2="200.4"/>
	<line class="st2" x1="45.5" y1="186.5" x2="112.2" y2="108.7"/>
	<line class="st2" x1="59.4" y1="200.4" x2="45.5" y2="186.5"/>
	<path class="st2" d="M217.9,208.4c-14.7,6.5-29.4,13-44.1,19.6"/>
	<line class="st2" x1="197.9" y1="235" x2="217.9" y2="208.4"/>
	<line class="st2" x1="139.4" y1="268.9" x2="183.2" y2="246.6"/>
	<path class="st2" d="M132,263.7c2.5,1.7,4.9,3.5,7.4,5.2"/>
</g>
</svg>
