<?xml version="1.0" encoding="utf-8"?>
<!-- Generator: Adobe Illustrator 21.1.0, SVG Export Plug-In . SVG Version: 6.00 Build 0)  -->
<svg version="1.1" xmlns="http://www.w3.org/2000/svg" xmlns:xlink="http://www.w3.org/1999/xlink" x="0px" y="0px"
	 viewBox="0 0 300 300" style="enable-background:new 0 0 300 300;" xml:space="preserve">
<style type="text/css">
	.st0{display:none;}
	.st1{display:inline;fill:none;stroke:#000000;stroke-linecap:round;stroke-linejoin:round;}
	.st2{fill:none;stroke:#000000;stroke-linecap:round;stroke-linejoin:round;}
</style>
<g id="_x31_" class="st0">
	<rect class="st1" width="300" height="300"/>
</g>
<g id="_x32_::300_-_Copy">
	<line class="st2" x1="200" y1="135.2" x2="157.8" y2="122.5"/>
	<line class="st2" x1="175.1" y1="193.6" x2="200" y2="135.2"/>
	<line class="st2" x1="157.8" y1="122.5" x2="84.6" y2="153.2"/>
	<path class="st2" d="M131.5,111.9c8.8,3.5,17.5,7,26.3,10.5"/>
	<line class="st2" x1="239.9" y1="145" x2="200" y2="135.2"/>
	<line class="st2" x1="239.9" y1="145" x2="236" y2="143.5"/>
	<path class="st2" d="M233.1,142.4c-30.5-9.3-60.9-18.6-91.4-27.9"/>
	<line class="st2" x1="239.9" y1="145" x2="217" y2="229.4"/>
	<line class="st2" x1="236" y1="143.5" x2="233.1" y2="142.4"/>
	<line class="st2" x1="146.7" y1="268.9" x2="161.2" y2="260.8"/>
	<line class="st2" x1="137.8" y1="268.6" x2="146.7" y2="268.9"/>
	<line class="st2" x1="131.5" y1="111.9" x2="141.7" y2="114.5"/>
	<line class="st2" x1="111.3" y1="248.3" x2="184.1" y2="221.7"/>
	<line class="st2" x1="84.6" y1="153.2" x2="175.1" y2="193.6"/>
	<line class="st2" x1="111.3" y1="248.3" x2="78.6" y2="154.3"/>
	<line class="st2" x1="175.1" y1="193.6" x2="184.1" y2="221.7"/>
	<line class="st2" x1="84.6" y1="153.2" x2="78.6" y2="154.3"/>
	<line class="st2" x1="45.9" y1="148.5" x2="131.5" y2="111.9"/>
	<line class="st2" x1="78.6" y1="154.3" x2="45.9" y2="148.5"/>
	<path class="st2" d="M217,229.4c-10.9-2.6-21.9-5.2-32.8-7.8"/>
	<line class="st2" x1="161.2" y1="260.8" x2="217" y2="229.4"/>
	<line class="st2" x1="96.4" y1="266.8" x2="137.8" y2="268.6"/>
	<path class="st2" d="M45.9,148.5c-0.2,4.3-0.3,8.6-0.4,12.9"/>
	<line class="st2" x1="45.6" y1="161.5" x2="45.5" y2="161.4"/>
	<path class="st2" d="M59.2,199.4c-4.5-12.6-9.1-25.3-13.6-37.9"/>
	<line class="st2" x1="96.4" y1="266.8" x2="59.2" y2="199.4"/>
	<path class="st2" d="M111.3,248.3c-4.9,6.2-9.9,12.4-14.8,18.5"/>
</g>
</svg>
