<?xml version="1.0" encoding="utf-8"?>
<!-- Generator: Adobe Illustrator 21.1.0, SVG Export Plug-In . SVG Version: 6.00 Build 0)  -->
<svg version="1.1" xmlns="http://www.w3.org/2000/svg" xmlns:xlink="http://www.w3.org/1999/xlink" x="0px" y="0px"
	 viewBox="0 0 300 300" style="enable-background:new 0 0 300 300;" xml:space="preserve">
<style type="text/css">
	.st0{display:none;}
	.st1{display:inline;fill:none;stroke:#000000;stroke-linecap:round;stroke-linejoin:round;}
	.st2{fill:none;stroke:#000000;stroke-linecap:round;stroke-linejoin:round;}
</style>
<g id="_x31_" class="st0">
	<rect class="st1" width="300" height="300"/>
</g>
<g id="_x32_::330_-_Copy">
	<line class="st2" x1="221.2" y1="152.3" x2="186.8" y2="124.4"/>
	<line class="st2" x1="195.9" y1="184.2" x2="221.2" y2="152.3"/>
	<line class="st2" x1="186.8" y1="124.4" x2="121.6" y2="113.7"/>
	<line class="st2" x1="233" y1="187.9" x2="221.2" y2="152.3"/>
	<line class="st2" x1="233" y1="187.9" x2="201.3" y2="244.4"/>
	<line class="st2" x1="90.2" y1="268.9" x2="113.8" y2="263.7"/>
	<line class="st2" x1="84.6" y1="263.4" x2="90.2" y2="268.9"/>
	<line class="st2" x1="51.5" y1="119" x2="62.3" y2="105.2"/>
	<line class="st2" x1="62.4" y1="105.2" x2="62.3" y2="105.2"/>
	<line class="st2" x1="51.5" y1="119" x2="51.6" y2="119"/>
	<line class="st2" x1="99.5" y1="216.2" x2="191.3" y2="214.6"/>
	<line class="st2" x1="121.6" y1="113.7" x2="195.9" y2="184.2"/>
	<line class="st2" x1="99.5" y1="216.2" x2="114.6" y2="112.6"/>
	<line class="st2" x1="195.9" y1="184.2" x2="191.3" y2="214.6"/>
	<line class="st2" x1="121.6" y1="113.7" x2="114.6" y2="112.6"/>
	<line class="st2" x1="114.6" y1="112.6" x2="62.4" y2="105.2"/>
	<path class="st2" d="M201.3,244.4c-3.3-9.9-6.7-19.9-10-29.8"/>
	<line class="st2" x1="113.8" y1="263.7" x2="201.3" y2="244.4"/>
	<line class="st2" x1="58.3" y1="237.5" x2="84.6" y2="263.4"/>
	<line class="st2" x1="62.4" y1="105.2" x2="62.4" y2="105.2"/>
	<path class="st2" d="M62.4,105.2c-3.7,4.6-7.3,9.2-10.8,13.9"/>
	<line class="st2" x1="51.5" y1="119.2" x2="51.5" y2="119.1"/>
	<path class="st2" d="M45.5,161.1c2-14,4-28,6-42"/>
	<line class="st2" x1="58.3" y1="237.5" x2="45.5" y2="161.1"/>
	<path class="st2" d="M99.5,216.2c-13.7,7.1-27.4,14.2-41.2,21.4"/>
</g>
</svg>
